<?xml version="1.0" encoding="utf-8"?>
<!-- Generator: Adobe Illustrator 24.0.3, SVG Export Plug-In . SVG Version: 6.00 Build 0)  -->
<svg version="1.1" id="Layer_1" xmlns="http://www.w3.org/2000/svg" xmlns:xlink="http://www.w3.org/1999/xlink" x="0px" y="0px"
	 viewBox="0 0 342.3 204.9" style="enable-background:new 0 0 342.3 204.9;" xml:space="preserve">
<style type="text/css">
	.st0{display:none;}
	.st1{display:inline;fill:#514324;}
	.st2{fill:none;}
	.st3{fill:#332E25;stroke:#A89F98;stroke-width:2;stroke-miterlimit:10;}
	.st4{fill:#850A0A;}
	.st5{fill:#FFFFFF;}
	.st6{fill:#FBC438;}
	.st7{font-family:'MyanmarMN';}
	.st8{font-size:11px;}
</style>
<g id="Layer_1_2_">
	<g id="Layer_3" class="st0">
		<rect x="-17.9" y="-7.9" class="st1" width="413.7" height="222.3"/>
	</g>
	<g id="Layer_1_1_">
		<rect x="13.6" y="158.5" class="st2" width="316.2" height="46.2"/>
		<g>
			<path class="st3" d="M8.1,74.5l6.9,14.7l-3.2,2l-8-20.5l4.8-2.9l13,11.4l-4-16.8l4.8-2.9l14,16.8L31,79.4L21.2,67l4.5,15.8
				l-4.8,2.9L8.1,74.5z"/>
			<path class="st3" d="M35.5,69.3c-0.3-0.8-0.5-1.6-0.7-2.3c-0.2-0.9-0.3-1.8-0.3-2.6c0-0.9,0-1.8,0-2.7c0-1,0.2-1.8,0.4-2.6
				l3.6-1.4c0,0.8,0.1,1.6,0.2,2.4c0.1,0.9,0.2,1.7,0.4,2.4s0.3,1.6,0.5,2.3c0.2,0.8,0.4,1.5,0.7,2.1c0.1,0.4,0.3,0.8,0.5,1.2
				c0.2,0.4,0.4,0.8,0.7,1.2c0.2,0.4,0.5,0.8,0.8,1.1c0.3,0.3,0.6,0.6,1,0.8c0.4,0.2,0.8,0.3,1.2,0.4c0.4,0.1,0.9,0,1.4-0.2
				c0.5-0.2,0.9-0.5,1.2-0.8c0.3-0.4,0.6-0.8,0.7-1.2s0.3-1,0.3-1.5s0-1.1,0-1.6c0-0.5-0.1-1-0.2-1.5c-0.1-0.5-0.2-0.9-0.4-1.3
				l-3-8.2l4.9-1.9l6,16.3l-1.9,0.7l-3.6-2.9c-0.1,0.8-0.2,1.5-0.4,2.1c-0.2,0.7-0.5,1.3-0.9,1.9c-0.4,0.6-0.9,1.1-1.4,1.5
				c-0.6,0.4-1.2,0.8-2,1.1c-1.2,0.4-2.3,0.6-3.2,0.6c-1-0.1-2-0.3-2.7-0.7S37.6,72.8,37,72C36.4,71.2,35.9,70.3,35.5,69.3z"/>
			<path class="st3" d="M76.6,64.2l-2,0.5l-3.2-3c-0.1,0.7-0.2,1.3-0.5,1.9c-0.3,0.6-0.6,1.2-1,1.7c-0.4,0.5-0.9,0.9-1.5,1.3
				c-0.6,0.4-1.2,0.6-1.9,0.8c-1.4,0.4-2.5,0.4-3.7,0.3c-1.2-0.2-2.3-0.6-3.1-1.3c-0.9-0.6-1.8-1.4-2.3-2.3c-0.7-1-1.2-2.1-1.5-3.3
				c-0.3-1.2-0.4-2.4-0.3-3.6c0.1-1.2,0.4-2.3,0.9-3.2c0.5-1,1.3-1.9,2.2-2.5s2.1-1.3,3.3-1.6c1-0.3,2-0.3,2.9-0.2
				c1,0.2,1.9,0.6,2.6,1.2l-2.2-8.2l5.1-1.4L76.6,64.2z M69.3,57.1c-0.1-0.4-0.2-0.8-0.4-1.3c-0.2-0.5-0.4-0.9-0.7-1.4
				c-0.3-0.5-0.6-0.9-0.9-1.3c-0.3-0.4-0.7-0.7-1.1-1c-0.4-0.3-0.8-0.5-1.3-0.6c-0.5-0.1-1-0.1-1.5,0.1c-0.6,0.2-1.1,0.4-1.4,0.7
				s-0.7,0.7-0.9,1.1c-0.2,0.4-0.4,0.9-0.5,1.4c-0.1,0.5-0.1,1-0.1,1.5c0,0.5,0.1,1,0.1,1.5c0.1,0.5,0.2,1,0.3,1.4
				c0.1,0.4,0.3,0.9,0.4,1.4c0.2,0.5,0.4,0.9,0.6,1.4c0.2,0.5,0.5,0.9,0.8,1.3c0.3,0.4,0.7,0.7,1.1,1c0.4,0.3,0.8,0.4,1.3,0.5
				c0.5,0.1,1,0.1,1.6-0.1c0.6-0.2,1.1-0.4,1.5-0.7c0.4-0.3,0.7-0.7,0.9-1.1c0.2-0.4,0.4-0.9,0.5-1.4c0.1-0.5,0.1-1,0.1-1.5
				c0-0.5-0.1-1-0.1-1.5C69.5,58,69.4,57.5,69.3,57.1z"/>
			<path class="st3" d="M91.5,44.8L92.2,61l-3.8,0.6l0.6-22l5.6-0.9l7.6,15.6l2.8-17.1l5.6-0.9l6.4,20.9l-6.3,0.9l-4.1-15.3l-2,16.2
				L99,60L91.5,44.8z"/>
			<path class="st3" d="M134,38.4L129,54.3c-0.6,1.8-1.3,3.6-2.1,5.4c-0.8,1.8-1.6,3.5-2.5,5.2l-2.2-1c0.2-0.5,0.5-1,0.8-1.7
				c0.3-0.6,0.6-1.3,0.9-2s0.6-1.3,0.8-2c0.2-0.7,0.4-1.2,0.5-1.8l-9.4-16.4l5.3-0.5l6.4,11.3l3-12L134,38.4z"/>
			<path class="st3" d="M152.6,49.3c0,0.8,0,1.5-0.2,2.1c-0.2,0.6-0.5,1.2-0.9,1.6c-0.4,0.5-0.8,0.9-1.4,1.2
				c-0.5,0.3-1.1,0.6-1.7,0.8c-0.6,0.2-1.3,0.4-2,0.5c-0.7,0.1-1.4,0.2-2,0.2c-0.9,0-1.7,0-2.3,0c-0.7-0.1-1.4-0.2-2-0.4
				c-0.6-0.2-1.3-0.5-1.9-0.9c-0.6-0.4-1.4-0.8-2.2-1.3l2.9-2.5c0.3,0.5,0.7,1,1.2,1.4c0.5,0.4,1,0.7,1.5,1c0.5,0.3,1,0.5,1.5,0.6
				s0.9,0.2,1.2,0.2c0.2,0,0.5,0,0.8-0.1c0.3,0,0.6-0.1,0.9-0.1c0.3-0.1,0.6-0.1,0.9-0.3c0.3-0.2,0.6-0.2,0.8-0.4
				c0.2-0.2,0.4-0.4,0.5-0.6s0.2-0.5,0.2-0.9c0-0.3-0.1-0.6-0.3-0.9c-0.2-0.3-0.5-0.5-0.8-0.6c-0.3-0.1-0.7-0.3-1-0.4
				c-0.4-0.1-0.8-0.2-1.2-0.3c-0.4-0.1-0.8-0.2-1.1-0.2s-0.7-0.1-0.9-0.2c-0.5-0.1-1-0.2-1.6-0.3c-0.5-0.1-1.1-0.2-1.6-0.4
				s-1.1-0.3-1.5-0.6c-0.4-0.3-0.9-0.5-1.3-0.8c-0.4-0.3-0.7-0.7-0.9-1.2c-0.2-0.5-0.4-1-0.4-1.6c-0.1-1.1,0.1-2.1,0.6-2.8
				c0.4-0.8,1-1.4,1.8-2c0.7-0.5,1.6-0.9,2.5-1.1c1-0.2,2-0.4,2.9-0.5c0.7,0,1.4,0,2.2,0.1c0.8,0.1,1.5,0.3,2.3,0.5
				c0.7,0.2,1.4,0.5,2.1,0.9c0.7,0.4,1.2,0.8,1.7,1.3l-2.9,2.6c-0.3-0.6-0.6-1.1-1-1.5c-0.4-0.4-0.8-0.8-1.3-1
				c-0.5-0.2-0.9-0.4-1.4-0.6c-0.5-0.1-0.9-0.2-1.3-0.1c-0.4,0-0.8,0.1-1.3,0.1c-0.5,0.1-0.9,0.2-1.3,0.3c-0.4,0.1-0.8,0.4-1,0.7
				c-0.3,0.3-0.4,0.7-0.4,1.2c0,0.4,0.1,0.7,0.3,0.9c0.2,0.3,0.4,0.5,0.7,0.6c0.3,0.2,0.6,0.3,1,0.4c0.4,0.1,0.8,0.2,1.1,0.3
				c0.4,0.1,0.8,0.1,1.1,0.2c0.4,0.1,0.7,0.1,1,0.2c0.5,0.1,1,0.2,1.6,0.3c0.6,0.1,1.1,0.2,1.6,0.4s1.1,0.3,1.6,0.5s1,0.5,1.3,0.8
				c0.4,0.3,0.7,0.7,1,1.2C152.7,48.2,152.6,48.6,152.6,49.3z"/>
			<path class="st3" d="M162.9,54.6l-5.3,0.1l-0.3-15.4l-3.2,0.1v-2.1l3.2-0.1l-0.1-6.4l5.3-0.1l0.1,6.4l5.5-0.1v2.1l-5.5,0.1
				L162.9,54.6z"/>
			<path class="st3" d="M187.3,43c0,0.7-0.1,1.4-0.4,1.9c-0.3,0.6-0.6,1.1-1,1.5c-0.4,0.4-0.9,0.8-1.5,1.1c-0.6,0.3-1.1,0.5-1.8,0.7
				c-0.6,0.2-1.3,0.3-1.9,0.4c-0.7,0.1-1.3,0.1-1.9,0.1c-0.8,0-1.6-0.1-2.3-0.2c-0.8-0.1-1.5-0.3-2.3-0.5c0.1,0.7,0.3,1.3,0.5,1.9
				c0.2,0.6,0.6,1.2,1,1.6c0.4,0.5,0.9,0.8,1.6,1.1c0.6,0.3,1.3,0.4,2.2,0.4c0.6,0,1.1-0.1,1.6-0.2c0.5-0.1,1-0.4,1.4-0.7
				c0.4-0.3,0.8-0.6,1.1-1c0.3-0.4,0.6-0.9,0.8-1.4l2.3,0.9c-0.4,0.8-0.8,1.5-1.5,2.1c-0.6,0.6-1.3,1.1-2.1,1.4
				c-0.8,0.4-1.6,0.6-2.4,0.8s-1.7,0.3-2.5,0.2c-1.4,0-2.6-0.3-3.8-0.7c-1.2-0.5-2.2-1.1-2.9-2s-1.5-1.8-2-2.9
				c-0.5-1.1-0.7-2.3-0.7-3.6c0-1.4,0.3-2.5,0.8-3.6c0.5-1.1,1.2-2.1,2.1-2.8c0.9-0.8,1.9-1.4,3-1.9c1.2-0.4,2.4-0.7,3.8-0.6
				c0.7,0,1.4,0.1,2.1,0.2c0.7,0.1,1.4,0.3,2.1,0.5c0.7,0.2,1.3,0.5,1.9,0.8c0.6,0.3,1.1,0.7,1.5,1.2s0.8,1,1,1.6
				C187.1,41.6,187.3,42.2,187.3,43z M174.3,46.4c0.7,0.2,1.3,0.3,2,0.4c0.7,0.1,1.3,0.1,2,0.1s1.3,0,1.9-0.2
				c0.6-0.1,1.1-0.3,1.6-0.6c0.4-0.3,0.8-0.7,1.1-1.2c0.3-0.5,0.4-1.1,0.4-1.9c0-0.6-0.1-1.2-0.2-1.7c-0.1-0.5-0.4-0.9-0.7-1.3
				c-0.3-0.4-0.7-0.6-1.2-0.9c-0.5-0.2-1.1-0.3-1.7-0.3c-0.6,0-1.1,0.1-1.6,0.3c-0.5,0.2-0.9,0.5-1.3,0.9c-0.4,0.4-0.7,0.8-1,1.3
				c-0.3,0.5-0.5,1-0.7,1.5c-0.2,0.5-0.3,1-0.4,1.6c-0.1,0.5-0.1,1-0.1,1.5c0,0.1,0,0.2,0,0.2C174.3,46.2,174.3,46.3,174.3,46.4z"/>
			<path class="st3" d="M206.3,39.8l-3.2,4.6c-0.1-0.4-0.2-0.9-0.4-1.4s-0.4-1-0.7-1.5c-0.3-0.5-0.6-0.9-1-1.2
				c-0.4-0.3-0.9-0.5-1.4-0.5s-0.9,0.1-1.3,0.3c-0.4,0.2-0.7,0.5-1,0.9c-0.3,0.4-0.5,0.8-0.7,1.3c-0.2,0.5-0.3,1-0.5,1.5
				c-0.1,0.5-0.2,1-0.3,1.4c-0.1,0.5-0.1,0.9-0.1,1.2l-0.5,8.7l-5.3-0.3l0.9-17.3l2.1,0.1l2,4.1c0.3-0.7,0.7-1.2,1.1-1.8
				c0.4-0.6,0.9-1,1.4-1.4c0.5-0.4,1.1-0.7,1.7-0.9c0.6-0.2,1.4-0.3,2.2-0.2c0.4,0,0.9,0.1,1.4,0.2c0.5,0.1,1,0.2,1.5,0.4
				s0.9,0.4,1.3,0.7C205.8,39.1,206.1,39.4,206.3,39.8z"/>
			<path class="st3" d="M224.9,39.9l-7.8,14.7c-0.9,1.7-1.9,3.3-2.9,5c-1.1,1.7-2.2,3.1-3.4,4.6l-2-1.4c0.3-0.4,0.7-0.9,1.1-1.5
				c0.4-0.6,0.8-1.2,1.2-1.8c0.4-0.6,0.8-1.2,1.1-1.8c0.4-0.6,0.6-1.2,0.8-1.7l-6.3-17.8l5.3,0.5l4.3,12.1l5.1-11.4L224.9,39.9z"/>
			<path class="st3" d="M253.7,54.9c-0.1,0.9-0.4,1.8-0.8,2.3s-0.8,1.2-1.3,1.7s-1.1,0.8-1.8,1.1c-0.7,0.3-1.4,0.4-2.1,0.5
				c-0.8,0.1-1.5,0.1-2.3,0.1s-1.6-0.1-2.4-0.2c-1.1-0.2-2.1-0.4-2.9-0.7s-1.7-0.7-2.4-1.2c-0.8-0.5-1.5-1-2.1-1.7
				c-0.7-0.7-1.3-1.4-1.9-2.3l3.6-2.5c0.2,0.7,0.5,1.5,0.9,2.1c0.4,0.7,0.9,1.3,1.4,1.8c0.5,0.5,1.1,1,1.8,1.3
				c0.6,0.3,1.2,0.6,1.8,0.7c0.7,0.1,1.3,0.2,2,0.2c0.7,0,1.2-0.1,1.7-0.2c0.5-0.2,0.9-0.4,1.2-0.7c0.3-0.3,0.5-0.8,0.6-1.3
				c0.1-0.4,0-0.8-0.1-1.1c-0.1-0.3-0.4-0.6-0.7-0.9c-0.3-0.3-0.6-0.5-1-0.7s-0.8-0.4-1.2-0.6c-0.4-0.2-0.8-0.3-1.2-0.5
				c-0.4-0.2-0.7-0.3-1-0.4c-0.6-0.3-1.2-0.6-1.8-0.9c-0.6-0.3-1.3-0.6-1.9-1c-0.6-0.4-1.2-0.7-1.7-1.2c-0.5-0.4-1-0.9-1.3-1.4
				c-0.4-0.5-0.6-1.1-0.8-1.7c-0.2-0.6-0.2-1.3-0.1-2.1c0.1-0.9,0.4-1.7,0.7-2.3c0.3-0.7,0.8-1.2,1.3-1.7c0.5-0.5,1.1-0.8,1.7-1.1
				c0.6-0.3,1.3-0.5,2.1-0.6c0.7-0.1,1.5-0.1,2.3-0.1c0.8,0,1.6,0.1,2.3,0.2c1.1,0.2,2.1,0.4,2.9,0.8c0.9,0.4,1.7,0.8,2.3,1.3
				c0.7,0.5,1.4,1.1,1.9,1.7c0.6,0.6,1.1,1.3,1.6,2l-3.6,2.5c-0.1-0.8-0.4-1.5-0.7-2.1c-0.4-0.7-0.8-1.2-1.2-1.7
				c-0.5-0.5-1-0.9-1.6-1.2c-0.6-0.3-1.1-0.5-1.7-0.6c-0.7-0.1-1.4-0.2-2-0.2c-0.6,0-1.2,0.1-1.6,0.2c-0.5,0.1-0.9,0.4-1.2,0.7
				c-0.3,0.3-0.5,0.8-0.6,1.3c-0.1,0.4,0,0.8,0.1,1.2c0.1,0.3,0.3,0.6,0.6,0.9c0.3,0.3,0.6,0.5,0.9,0.7c0.4,0.2,0.7,0.4,1.1,0.5
				c0.4,0.2,0.8,0.3,1.2,0.5c0.4,0.1,0.7,0.3,1,0.4c0.6,0.3,1.2,0.6,1.9,0.9c0.7,0.3,1.3,0.6,1.9,1c0.6,0.4,1.2,0.8,1.8,1.2
				c0.6,0.4,1,0.9,1.4,1.4c0.4,0.5,0.7,1.1,0.8,1.8C253.8,53.4,253.8,54.1,253.7,54.9z"/>
			<path class="st3" d="M274.9,54.3c-0.2,0.7-0.4,1.3-0.8,1.8s-0.8,0.9-1.3,1.3c-0.5,0.4-1.1,0.6-1.7,0.8c-0.6,0.2-1.2,0.3-1.9,0.3
				c-0.7,0.1-1.3,0-2,0c-0.7-0.1-1.3-0.2-1.9-0.3c-0.8-0.2-1.5-0.4-2.3-0.7c-0.7-0.3-1.4-0.6-2.1-1c0,0.7,0,1.4,0.1,2
				c0.1,0.6,0.3,1.2,0.7,1.8c0.3,0.5,0.7,1,1.3,1.4c0.5,0.4,1.2,0.7,2.1,0.9c0.5,0.1,1.1,0.2,1.6,0.1c0.5-0.1,1-0.2,1.5-0.4
				c0.5-0.2,0.9-0.5,1.3-0.8c0.4-0.3,0.8-0.7,1.1-1.2l2.1,1.3c-0.5,0.7-1.1,1.3-1.9,1.7c-0.8,0.4-1.5,0.8-2.3,1s-1.7,0.3-2.5,0.3
				c-0.9,0-1.7-0.1-2.5-0.3c-1.4-0.3-2.5-0.8-3.5-1.5s-1.9-1.5-2.5-2.4c-0.7-1-1.1-2.1-1.3-3.2c-0.2-1.2-0.2-2.4,0.1-3.7
				c0.3-1.3,0.8-2.4,1.5-3.4c0.7-1,1.6-1.8,2.5-2.3c1-0.6,2.1-1,3.3-1.2c1.3-0.2,2.5-0.1,3.8,0.2c0.7,0.1,1.3,0.3,2,0.6
				c0.7,0.2,1.3,0.5,1.9,0.9c0.6,0.3,1.2,0.7,1.7,1.2c0.5,0.4,0.9,0.9,1.3,1.5c0.3,0.6,0.6,1.2,0.7,1.8
				C275.1,52.9,275.1,53.6,274.9,54.3z M261.6,54.9c0.6,0.3,1.2,0.5,1.9,0.8c0.6,0.2,1.3,0.4,1.9,0.5c0.7,0.2,1.3,0.2,1.9,0.2
				c0.6,0,1.2-0.1,1.7-0.3s0.9-0.5,1.3-1c0.4-0.4,0.6-1,0.8-1.8c0.1-0.6,0.2-1.1,0.1-1.7c-0.1-0.6-0.2-1-0.5-1.4
				c-0.2-0.4-0.6-0.8-1-1.1c-0.4-0.3-1-0.5-1.6-0.7c-0.6-0.1-1.1-0.1-1.7,0c-0.5,0.1-1,0.3-1.4,0.6c-0.4,0.3-0.8,0.6-1.2,1
				c-0.4,0.4-0.7,0.9-1,1.3c-0.3,0.5-0.5,1-0.7,1.5c-0.2,0.5-0.3,1-0.4,1.4c0,0.1,0,0.2-0.1,0.2C261.6,54.8,261.6,54.8,261.6,54.9z"
				/>
			<path class="st3" d="M294.4,55.6l-4.2,3.7c0-0.4,0-0.9-0.1-1.5c0-0.5-0.2-1.1-0.3-1.6c-0.2-0.5-0.4-1-0.7-1.4
				c-0.3-0.4-0.7-0.7-1.2-0.8s-0.9-0.1-1.3,0c-0.4,0.1-0.8,0.4-1.2,0.7c-0.4,0.3-0.7,0.7-1,1.1c-0.3,0.4-0.6,0.9-0.8,1.3
				c-0.2,0.4-0.4,0.9-0.6,1.4c-0.2,0.5-0.3,0.8-0.4,1.1l-2.4,8.3l-5.1-1.5l4.9-16.6l2,0.6l0.9,4.5c0.5-0.6,1-1,1.5-1.5
				c0.5-0.4,1.1-0.8,1.7-1c0.6-0.2,1.2-0.4,1.9-0.4s1.4,0.1,2.1,0.3c0.4,0.1,0.8,0.3,1.3,0.5c0.5,0.2,0.9,0.5,1.3,0.7
				c0.4,0.3,0.8,0.6,1.1,1C294.1,54.8,294.3,55.2,294.4,55.6z"/>
			<path class="st3" d="M296.7,73.4l-5-1.8l5.9-16.3l5,1.8L296.7,73.4z M304.2,53.1c-0.1,0.4-0.3,0.7-0.6,1
				c-0.3,0.3-0.6,0.5-0.9,0.6c-0.3,0.2-0.7,0.2-1.1,0.3c-0.4,0-0.8,0-1.2-0.2c-0.4-0.2-0.7-0.3-1-0.6c-0.3-0.3-0.5-0.6-0.7-0.9
				s-0.3-0.7-0.3-1.1s0-0.8,0.2-1.1c0.1-0.4,0.3-0.7,0.6-1c0.3-0.3,0.6-0.5,0.9-0.6c0.3-0.2,0.7-0.2,1.1-0.3c0.4,0,0.8,0,1.1,0.2
				s0.7,0.3,1,0.6c0.3,0.3,0.5,0.6,0.7,0.9c0.2,0.3,0.3,0.7,0.3,1.1C304.3,52.4,304.3,52.7,304.2,53.1z"/>
			<path class="st3" d="M321,71.3c-0.3,0.7-0.7,1.2-1.2,1.6s-1,0.7-1.5,0.9s-1.2,0.3-1.8,0.4c-0.6,0.1-1.3,0-1.9-0.1
				c-0.6-0.1-1.3-0.2-1.9-0.4c-0.6-0.2-1.2-0.4-1.8-0.7c-0.7-0.3-1.4-0.7-2.1-1.1c-0.7-0.4-1.3-0.9-1.9-1.4c-0.2,0.7-0.3,1.3-0.3,2
				s0.1,1.3,0.2,1.9c0.2,0.6,0.5,1.1,1,1.6s1.1,0.9,1.8,1.3c0.5,0.2,1,0.4,1.6,0.5c0.5,0.1,1,0.1,1.6,0c0.5-0.1,1-0.3,1.5-0.5
				s0.9-0.5,1.3-0.9l1.8,1.7c-0.7,0.6-1.4,1-2.2,1.3s-1.6,0.4-2.4,0.4c-0.9,0-1.7-0.1-2.5-0.3c-0.9-0.2-1.7-0.5-2.3-0.8
				c-1.3-0.6-2.3-1.3-3.1-2.3c-0.9-0.9-1.5-1.9-2-2.9c-0.4-1.1-0.6-2.3-0.6-3.4s0.3-2.4,0.9-3.6c0.6-1.2,1.3-2.3,2.2-3
				c0.9-0.8,1.9-1.4,3-1.8c1.1-0.4,2.3-0.5,3.5-0.4c1.3,0.1,2.4,0.4,3.7,1c0.6,0.3,1.2,0.6,1.8,1s1.2,0.8,1.7,1.3s1,1,1.4,1.5
				c0.4,0.5,0.7,1.1,0.9,1.7c0.2,0.6,0.3,1.2,0.3,1.9C321.5,69.9,321.3,70.6,321,71.3z M307.8,68.9c0.5,0.4,1.1,0.8,1.6,1.1
				c0.6,0.4,1.1,0.7,1.7,1c0.6,0.3,1.2,0.5,1.8,0.6c0.6,0.1,1.2,0.2,1.7,0.1c0.5-0.1,1-0.3,1.5-0.7c0.4-0.3,0.8-0.9,1.1-1.5
				c0.3-0.5,0.4-1.1,0.5-1.6c0.1-0.5,0-1-0.1-1.5c-0.2-0.5-0.4-0.9-0.8-1.3c-0.4-0.4-0.8-0.7-1.4-1c-0.5-0.3-1.1-0.4-1.6-0.4
				s-1,0.1-1.5,0.2c-0.5,0.1-0.9,0.4-1.4,0.8c-0.4,0.3-0.8,0.7-1.2,1.1c-0.4,0.4-0.7,0.8-1,1.3c-0.3,0.5-0.5,0.9-0.7,1.3
				c0,0.1-0.1,0.1-0.1,0.2C307.9,68.8,307.8,68.9,307.8,68.9z"/>
			<path class="st3" d="M333.8,87.7c-0.5,0.6-1,1.1-1.5,1.5c-0.5,0.3-1.1,0.6-1.7,0.7c-0.6,0.1-1.2,0.1-1.8,0.1
				c-0.6-0.1-1.2-0.2-1.9-0.5c-0.6-0.2-1.2-0.5-1.8-0.8c-0.6-0.3-1.2-0.7-1.7-1.1c-0.7-0.5-1.4-1.1-1.8-1.6c-0.5-0.5-0.9-1-1.3-1.6
				c-0.4-0.6-0.7-1.2-1-1.9s-0.5-1.5-0.8-2.3l3.9-0.1c-0.1,0.6-0.1,1.2,0.1,1.8c0.1,0.6,0.3,1.2,0.5,1.8c0.2,0.5,0.5,1,0.8,1.4
				c0.3,0.4,0.6,0.7,0.8,0.9c0.2,0.1,0.4,0.3,0.7,0.5c0.3,0.2,0.5,0.3,0.8,0.5c0.3,0.2,0.6,0.3,0.9,0.4c0.3,0.1,0.6,0.2,0.9,0.2
				s0.6,0,0.8-0.1c0.2-0.1,0.5-0.3,0.7-0.6c0.2-0.3,0.3-0.6,0.3-0.9c0-0.3-0.1-0.6-0.2-1c-0.1-0.3-0.3-0.7-0.5-1
				c-0.2-0.3-0.5-0.7-0.7-1c-0.3-0.3-0.5-0.6-0.7-0.9c-0.2-0.3-0.5-0.5-0.6-0.7c-0.3-0.4-0.6-0.8-1-1.2c-0.4-0.4-0.7-0.9-1-1.3
				c-0.3-0.5-0.6-0.9-0.8-1.4c-0.2-0.5-0.4-1-0.5-1.5c-0.1-0.5-0.1-1,0-1.5c0.1-0.5,0.3-1,0.7-1.5c0.7-0.9,1.4-1.6,2.3-1.9
				c0.8-0.3,1.7-0.5,2.5-0.4c0.9,0.1,1.8,0.3,2.6,0.8c0.9,0.4,1.8,0.9,2.5,1.5c0.6,0.4,1.1,0.9,1.7,1.5c0.5,0.6,1,1.2,1.5,1.8
				c0.4,0.7,0.8,1.3,1.1,2c0.3,0.7,0.4,1.4,0.5,2l-3.9,0.2c0.2-0.6,0.2-1.2,0.2-1.8s-0.2-1.1-0.3-1.6c-0.2-0.5-0.4-0.9-0.7-1.3
				s-0.6-0.7-0.9-0.9c-0.3-0.2-0.7-0.5-1.1-0.7c-0.4-0.2-0.8-0.5-1.2-0.6c-0.4-0.1-0.8-0.2-1.2-0.1c-0.4,0.1-0.8,0.3-1.1,0.7
				c-0.2,0.3-0.3,0.6-0.3,0.9s0,0.6,0.2,1c0.1,0.3,0.3,0.6,0.5,1s0.5,0.6,0.7,0.9c0.2,0.3,0.5,0.6,0.7,0.9c0.2,0.3,0.5,0.5,0.6,0.8
				c0.3,0.4,0.6,0.8,1,1.2c0.4,0.4,0.7,0.9,1,1.3c0.3,0.5,0.6,0.9,0.9,1.4c0.3,0.5,0.4,1,0.5,1.5c0.1,0.5,0.1,1,0,1.5
				C334.4,86.7,334.1,87.2,333.8,87.7z"/>
		</g>
		<g>
			<path class="st4" d="M8.1,74.5l6.9,14.7l-3.2,2l-8-20.5l4.8-2.9l13,11.4l-4-16.8l4.8-2.9l14,16.8L31,79.4L21.2,67l4.5,15.8
				l-4.8,2.9L8.1,74.5z"/>
			<path class="st4" d="M35.5,69.3c-0.3-0.8-0.5-1.6-0.7-2.3c-0.2-0.9-0.3-1.8-0.3-2.6c0-0.9,0-1.8,0-2.7c0-1,0.2-1.8,0.4-2.6
				l3.6-1.4c0,0.8,0.1,1.6,0.2,2.4c0.1,0.9,0.2,1.7,0.4,2.4s0.3,1.6,0.5,2.3c0.2,0.8,0.4,1.5,0.7,2.1c0.1,0.4,0.3,0.8,0.5,1.2
				c0.2,0.4,0.4,0.8,0.7,1.2c0.2,0.4,0.5,0.8,0.8,1.1c0.3,0.3,0.6,0.6,1,0.8c0.4,0.2,0.8,0.3,1.2,0.4c0.4,0.1,0.9,0,1.4-0.2
				c0.5-0.2,0.9-0.5,1.2-0.8c0.3-0.4,0.6-0.8,0.7-1.2s0.3-1,0.3-1.5s0-1.1,0-1.6c0-0.5-0.1-1-0.2-1.5c-0.1-0.5-0.2-0.9-0.4-1.3
				l-3-8.2l4.9-1.9l6,16.3l-1.9,0.7l-3.6-2.9c-0.1,0.8-0.2,1.5-0.4,2.1c-0.2,0.7-0.5,1.3-0.9,1.9c-0.4,0.6-0.9,1.1-1.4,1.5
				c-0.6,0.4-1.2,0.8-2,1.1c-1.2,0.4-2.3,0.6-3.2,0.6c-1-0.1-2-0.3-2.7-0.7S37.6,72.8,37,72C36.4,71.2,35.9,70.3,35.5,69.3z"/>
			<path class="st4" d="M76.6,64.2l-2,0.5l-3.2-3c-0.1,0.7-0.2,1.3-0.5,1.9c-0.3,0.6-0.6,1.2-1,1.7c-0.4,0.5-0.9,0.9-1.5,1.3
				c-0.6,0.4-1.2,0.6-1.9,0.8c-1.4,0.4-2.5,0.4-3.7,0.3c-1.2-0.2-2.3-0.6-3.1-1.3c-0.9-0.6-1.8-1.4-2.3-2.3c-0.7-1-1.2-2.1-1.5-3.3
				c-0.3-1.2-0.4-2.4-0.3-3.6c0.1-1.2,0.4-2.3,0.9-3.2c0.5-1,1.3-1.9,2.2-2.5s2.1-1.3,3.3-1.6c1-0.3,2-0.3,2.9-0.2
				c1,0.2,1.9,0.6,2.6,1.2l-2.2-8.2l5.1-1.4L76.6,64.2z M69.3,57.1c-0.1-0.4-0.2-0.8-0.4-1.3c-0.2-0.5-0.4-0.9-0.7-1.4
				c-0.3-0.5-0.6-0.9-0.9-1.3c-0.3-0.4-0.7-0.7-1.1-1c-0.4-0.3-0.8-0.5-1.3-0.6c-0.5-0.1-1-0.1-1.5,0.1c-0.6,0.2-1.1,0.4-1.4,0.7
				s-0.7,0.7-0.9,1.1c-0.2,0.4-0.4,0.9-0.5,1.4c-0.1,0.5-0.1,1-0.1,1.5c0,0.5,0.1,1,0.1,1.5c0.1,0.5,0.2,1,0.3,1.4
				c0.1,0.4,0.3,0.9,0.4,1.4c0.2,0.5,0.4,0.9,0.6,1.4c0.2,0.5,0.5,0.9,0.8,1.3c0.3,0.4,0.7,0.7,1.1,1c0.4,0.3,0.8,0.4,1.3,0.5
				c0.5,0.1,1,0.1,1.6-0.1c0.6-0.2,1.1-0.4,1.5-0.7c0.4-0.3,0.7-0.7,0.9-1.1c0.2-0.4,0.4-0.9,0.5-1.4c0.1-0.5,0.1-1,0.1-1.5
				c0-0.5-0.1-1-0.1-1.5C69.5,58,69.4,57.5,69.3,57.1z"/>
			<path class="st4" d="M91.5,44.8L92.2,61l-3.8,0.6l0.6-22l5.6-0.9l7.6,15.6l2.8-17.1l5.6-0.9l6.4,20.9l-6.3,0.9l-4.1-15.3l-2,16.2
				L99,60L91.5,44.8z"/>
			<path class="st4" d="M134,38.4L129,54.3c-0.6,1.8-1.3,3.6-2.1,5.4c-0.8,1.8-1.6,3.5-2.5,5.2l-2.2-1c0.2-0.5,0.5-1,0.8-1.7
				c0.3-0.6,0.6-1.3,0.9-2s0.6-1.3,0.8-2c0.2-0.7,0.4-1.2,0.5-1.8l-9.4-16.4l5.3-0.5l6.4,11.3l3-12L134,38.4z"/>
			<path class="st4" d="M152.6,49.3c0,0.8,0,1.5-0.2,2.1c-0.2,0.6-0.5,1.2-0.9,1.6c-0.4,0.5-0.8,0.9-1.4,1.2
				c-0.5,0.3-1.1,0.6-1.7,0.8c-0.6,0.2-1.3,0.4-2,0.5c-0.7,0.1-1.4,0.2-2,0.2c-0.9,0-1.7,0-2.3,0c-0.7-0.1-1.4-0.2-2-0.4
				c-0.6-0.2-1.3-0.5-1.9-0.9c-0.6-0.4-1.4-0.8-2.2-1.3l2.9-2.5c0.3,0.5,0.7,1,1.2,1.4c0.5,0.4,1,0.7,1.5,1c0.5,0.3,1,0.5,1.5,0.6
				s0.9,0.2,1.2,0.2c0.2,0,0.5,0,0.8-0.1c0.3,0,0.6-0.1,0.9-0.1c0.3-0.1,0.6-0.1,0.9-0.3c0.3-0.2,0.6-0.2,0.8-0.4
				c0.2-0.2,0.4-0.4,0.5-0.6s0.2-0.5,0.2-0.9c0-0.3-0.1-0.6-0.3-0.9c-0.2-0.3-0.5-0.5-0.8-0.6c-0.3-0.1-0.7-0.3-1-0.4
				c-0.4-0.1-0.8-0.2-1.2-0.3c-0.4-0.1-0.8-0.2-1.1-0.2s-0.7-0.1-0.9-0.2c-0.5-0.1-1-0.2-1.6-0.3c-0.5-0.1-1.1-0.2-1.6-0.4
				s-1.1-0.3-1.5-0.6c-0.4-0.3-0.9-0.5-1.3-0.8c-0.4-0.3-0.7-0.7-0.9-1.2c-0.2-0.5-0.4-1-0.4-1.6c-0.1-1.1,0.1-2.1,0.6-2.8
				c0.4-0.8,1-1.4,1.8-2c0.7-0.5,1.6-0.9,2.5-1.1c1-0.2,2-0.4,2.9-0.5c0.7,0,1.4,0,2.2,0.1c0.8,0.1,1.5,0.3,2.3,0.5
				c0.7,0.2,1.4,0.5,2.1,0.9c0.7,0.4,1.2,0.8,1.7,1.3l-2.9,2.6c-0.3-0.6-0.6-1.1-1-1.5c-0.4-0.4-0.8-0.8-1.3-1
				c-0.5-0.2-0.9-0.4-1.4-0.6c-0.5-0.1-0.9-0.2-1.3-0.1c-0.4,0-0.8,0.1-1.3,0.1c-0.5,0.1-0.9,0.2-1.3,0.3c-0.4,0.1-0.8,0.4-1,0.7
				c-0.3,0.3-0.4,0.7-0.4,1.2c0,0.4,0.1,0.7,0.3,0.9c0.2,0.3,0.4,0.5,0.7,0.6c0.3,0.2,0.6,0.3,1,0.4c0.4,0.1,0.8,0.2,1.1,0.3
				c0.4,0.1,0.8,0.1,1.1,0.2c0.4,0.1,0.7,0.1,1,0.2c0.5,0.1,1,0.2,1.6,0.3c0.6,0.1,1.1,0.2,1.6,0.4s1.1,0.3,1.6,0.5s1,0.5,1.3,0.8
				c0.4,0.3,0.7,0.7,1,1.2C152.7,48.2,152.6,48.6,152.6,49.3z"/>
			<path class="st4" d="M162.9,54.6l-5.3,0.1l-0.3-15.4l-3.2,0.1v-2.1l3.2-0.1l-0.1-6.4l5.3-0.1l0.1,6.4l5.5-0.1v2.1l-5.5,0.1
				L162.9,54.6z"/>
			<path class="st4" d="M187.3,43c0,0.7-0.1,1.4-0.4,1.9c-0.3,0.6-0.6,1.1-1,1.5c-0.4,0.4-0.9,0.8-1.5,1.1c-0.6,0.3-1.1,0.5-1.8,0.7
				c-0.6,0.2-1.3,0.3-1.9,0.4c-0.7,0.1-1.3,0.1-1.9,0.1c-0.8,0-1.6-0.1-2.3-0.2c-0.8-0.1-1.5-0.3-2.3-0.5c0.1,0.7,0.3,1.3,0.5,1.9
				c0.2,0.6,0.6,1.2,1,1.6c0.4,0.5,0.9,0.8,1.6,1.1c0.6,0.3,1.3,0.4,2.2,0.4c0.6,0,1.1-0.1,1.6-0.2c0.5-0.1,1-0.4,1.4-0.7
				c0.4-0.3,0.8-0.6,1.1-1c0.3-0.4,0.6-0.9,0.8-1.4l2.3,0.9c-0.4,0.8-0.8,1.5-1.5,2.1c-0.6,0.6-1.3,1.1-2.1,1.4
				c-0.8,0.4-1.6,0.6-2.4,0.8s-1.7,0.3-2.5,0.2c-1.4,0-2.6-0.3-3.8-0.7c-1.2-0.5-2.2-1.1-2.9-2s-1.5-1.8-2-2.9
				c-0.5-1.1-0.7-2.3-0.7-3.6c0-1.4,0.3-2.5,0.8-3.6c0.5-1.1,1.2-2.1,2.1-2.8c0.9-0.8,1.9-1.4,3-1.9c1.2-0.4,2.4-0.7,3.8-0.6
				c0.7,0,1.4,0.1,2.1,0.2c0.7,0.1,1.4,0.3,2.1,0.5c0.7,0.2,1.3,0.5,1.9,0.8c0.6,0.3,1.1,0.7,1.5,1.2s0.8,1,1,1.6
				C187.1,41.6,187.3,42.2,187.3,43z M174.3,46.4c0.7,0.2,1.3,0.3,2,0.4c0.7,0.1,1.3,0.1,2,0.1s1.3,0,1.9-0.2
				c0.6-0.1,1.1-0.3,1.6-0.6c0.4-0.3,0.8-0.7,1.1-1.2c0.3-0.5,0.4-1.1,0.4-1.9c0-0.6-0.1-1.2-0.2-1.7c-0.1-0.5-0.4-0.9-0.7-1.3
				c-0.3-0.4-0.7-0.6-1.2-0.9c-0.5-0.2-1.1-0.3-1.7-0.3c-0.6,0-1.1,0.1-1.6,0.3c-0.5,0.2-0.9,0.5-1.3,0.9c-0.4,0.4-0.7,0.8-1,1.3
				c-0.3,0.5-0.5,1-0.7,1.5c-0.2,0.5-0.3,1-0.4,1.6c-0.1,0.5-0.1,1-0.1,1.5c0,0.1,0,0.2,0,0.2C174.3,46.2,174.3,46.3,174.3,46.4z"/>
			<path class="st4" d="M206.3,39.8l-3.2,4.6c-0.1-0.4-0.2-0.9-0.4-1.4s-0.4-1-0.7-1.5c-0.3-0.5-0.6-0.9-1-1.2
				c-0.4-0.3-0.9-0.5-1.4-0.5s-0.9,0.1-1.3,0.3c-0.4,0.2-0.7,0.5-1,0.9c-0.3,0.4-0.5,0.8-0.7,1.3c-0.2,0.5-0.3,1-0.5,1.5
				c-0.1,0.5-0.2,1-0.3,1.4c-0.1,0.5-0.1,0.9-0.1,1.2l-0.5,8.7l-5.3-0.3l0.9-17.3l2.1,0.1l2,4.1c0.3-0.7,0.7-1.2,1.1-1.8
				c0.4-0.6,0.9-1,1.4-1.4c0.5-0.4,1.1-0.7,1.7-0.9c0.6-0.2,1.4-0.3,2.2-0.2c0.4,0,0.9,0.1,1.4,0.2c0.5,0.1,1,0.2,1.5,0.4
				s0.9,0.4,1.3,0.7C205.8,39.1,206.1,39.4,206.3,39.8z"/>
			<path class="st4" d="M224.9,39.9l-7.8,14.7c-0.9,1.7-1.9,3.3-2.9,5c-1.1,1.7-2.2,3.1-3.4,4.6l-2-1.4c0.3-0.4,0.7-0.9,1.1-1.5
				c0.4-0.6,0.8-1.2,1.2-1.8c0.4-0.6,0.8-1.2,1.1-1.8c0.4-0.6,0.6-1.2,0.8-1.7l-6.3-17.8l5.3,0.5l4.3,12.1l5.1-11.4L224.9,39.9z"/>
			<path class="st4" d="M253.7,54.9c-0.1,0.9-0.4,1.8-0.8,2.3s-0.8,1.2-1.3,1.7s-1.1,0.8-1.8,1.1c-0.7,0.3-1.4,0.4-2.1,0.5
				c-0.8,0.1-1.5,0.1-2.3,0.1s-1.6-0.1-2.4-0.2c-1.1-0.2-2.1-0.4-2.9-0.7s-1.7-0.7-2.4-1.2c-0.8-0.5-1.5-1-2.1-1.7
				c-0.7-0.7-1.3-1.4-1.9-2.3l3.6-2.5c0.2,0.7,0.5,1.5,0.9,2.1c0.4,0.7,0.9,1.3,1.4,1.8c0.5,0.5,1.1,1,1.8,1.3
				c0.6,0.3,1.2,0.6,1.8,0.7c0.7,0.1,1.3,0.2,2,0.2c0.7,0,1.2-0.1,1.7-0.2c0.5-0.2,0.9-0.4,1.2-0.7c0.3-0.3,0.5-0.8,0.6-1.3
				c0.1-0.4,0-0.8-0.1-1.1c-0.1-0.3-0.4-0.6-0.7-0.9c-0.3-0.3-0.6-0.5-1-0.7s-0.8-0.4-1.2-0.6c-0.4-0.2-0.8-0.3-1.2-0.5
				c-0.4-0.2-0.7-0.3-1-0.4c-0.6-0.3-1.2-0.6-1.8-0.9c-0.6-0.3-1.3-0.6-1.9-1c-0.6-0.4-1.2-0.7-1.7-1.2c-0.5-0.4-1-0.9-1.3-1.4
				c-0.4-0.5-0.6-1.1-0.8-1.7c-0.2-0.6-0.2-1.3-0.1-2.1c0.1-0.9,0.4-1.7,0.7-2.3c0.3-0.7,0.8-1.2,1.3-1.7c0.5-0.5,1.1-0.8,1.7-1.1
				c0.6-0.3,1.3-0.5,2.1-0.6c0.7-0.1,1.5-0.1,2.3-0.1c0.8,0,1.6,0.1,2.3,0.2c1.1,0.2,2.1,0.4,2.9,0.8c0.9,0.4,1.7,0.8,2.3,1.3
				c0.7,0.5,1.4,1.1,1.9,1.7c0.6,0.6,1.1,1.3,1.6,2l-3.6,2.5c-0.1-0.8-0.4-1.5-0.7-2.1c-0.4-0.7-0.8-1.2-1.2-1.7
				c-0.5-0.5-1-0.9-1.6-1.2c-0.6-0.3-1.1-0.5-1.7-0.6c-0.7-0.1-1.4-0.2-2-0.2c-0.6,0-1.2,0.1-1.6,0.2c-0.5,0.1-0.9,0.4-1.2,0.7
				c-0.3,0.3-0.5,0.8-0.6,1.3c-0.1,0.4,0,0.8,0.1,1.2c0.1,0.3,0.3,0.6,0.6,0.9c0.3,0.3,0.6,0.5,0.9,0.7c0.4,0.2,0.7,0.4,1.1,0.5
				c0.4,0.2,0.8,0.3,1.2,0.5c0.4,0.1,0.7,0.3,1,0.4c0.6,0.3,1.2,0.6,1.9,0.9c0.7,0.3,1.3,0.6,1.9,1c0.6,0.4,1.2,0.8,1.8,1.2
				c0.6,0.4,1,0.9,1.4,1.4c0.4,0.5,0.7,1.1,0.8,1.8C253.8,53.4,253.8,54.1,253.7,54.9z"/>
			<path class="st4" d="M274.9,54.3c-0.2,0.7-0.4,1.3-0.8,1.8s-0.8,0.9-1.3,1.3c-0.5,0.4-1.1,0.6-1.7,0.8c-0.6,0.2-1.2,0.3-1.9,0.3
				c-0.7,0.1-1.3,0-2,0c-0.7-0.1-1.3-0.2-1.9-0.3c-0.8-0.2-1.5-0.4-2.3-0.7c-0.7-0.3-1.4-0.6-2.1-1c0,0.7,0,1.4,0.1,2
				c0.1,0.6,0.3,1.2,0.7,1.8c0.3,0.5,0.7,1,1.3,1.4c0.5,0.4,1.2,0.7,2.1,0.9c0.5,0.1,1.1,0.2,1.6,0.1c0.5-0.1,1-0.2,1.5-0.4
				c0.5-0.2,0.9-0.5,1.3-0.8c0.4-0.3,0.8-0.7,1.1-1.2l2.1,1.3c-0.5,0.7-1.1,1.3-1.9,1.7c-0.8,0.4-1.5,0.8-2.3,1s-1.7,0.3-2.5,0.3
				c-0.9,0-1.7-0.1-2.5-0.3c-1.4-0.3-2.5-0.8-3.5-1.5s-1.9-1.5-2.5-2.4c-0.7-1-1.1-2.1-1.3-3.2c-0.2-1.2-0.2-2.4,0.1-3.7
				c0.3-1.3,0.8-2.4,1.5-3.4c0.7-1,1.6-1.8,2.5-2.3c1-0.6,2.1-1,3.3-1.2c1.3-0.2,2.5-0.1,3.8,0.2c0.7,0.1,1.3,0.3,2,0.6
				c0.7,0.2,1.3,0.5,1.9,0.9c0.6,0.3,1.2,0.7,1.7,1.2c0.5,0.4,0.9,0.9,1.3,1.5c0.3,0.6,0.6,1.2,0.7,1.8
				C275.1,52.9,275.1,53.6,274.9,54.3z M261.6,54.9c0.6,0.3,1.2,0.5,1.9,0.8c0.6,0.2,1.3,0.4,1.9,0.5c0.7,0.2,1.3,0.2,1.9,0.2
				c0.6,0,1.2-0.1,1.7-0.3s0.9-0.5,1.3-1c0.4-0.4,0.6-1,0.8-1.8c0.1-0.6,0.2-1.1,0.1-1.7c-0.1-0.6-0.2-1-0.5-1.4
				c-0.2-0.4-0.6-0.8-1-1.1c-0.4-0.3-1-0.5-1.6-0.7c-0.6-0.1-1.1-0.1-1.7,0c-0.5,0.1-1,0.3-1.4,0.6c-0.4,0.3-0.8,0.6-1.2,1
				c-0.4,0.4-0.7,0.9-1,1.3c-0.3,0.5-0.5,1-0.7,1.5c-0.2,0.5-0.3,1-0.4,1.4c0,0.1,0,0.2-0.1,0.2C261.6,54.8,261.6,54.8,261.6,54.9z"
				/>
			<path class="st4" d="M294.4,55.6l-4.2,3.7c0-0.4,0-0.9-0.1-1.5c0-0.5-0.2-1.1-0.3-1.6c-0.2-0.5-0.4-1-0.7-1.4
				c-0.3-0.4-0.7-0.7-1.2-0.8s-0.9-0.1-1.3,0c-0.4,0.1-0.8,0.4-1.2,0.7c-0.4,0.3-0.7,0.7-1,1.1c-0.3,0.4-0.6,0.9-0.8,1.3
				c-0.2,0.4-0.4,0.9-0.6,1.4c-0.2,0.5-0.3,0.8-0.4,1.1l-2.4,8.3l-5.1-1.5l4.9-16.6l2,0.6l0.9,4.5c0.5-0.6,1-1,1.5-1.5
				c0.5-0.4,1.1-0.8,1.7-1c0.6-0.2,1.2-0.4,1.9-0.4s1.4,0.1,2.1,0.3c0.4,0.1,0.8,0.3,1.3,0.5c0.5,0.2,0.9,0.5,1.3,0.7
				c0.4,0.3,0.8,0.6,1.1,1C294.1,54.8,294.3,55.2,294.4,55.6z"/>
			<path class="st4" d="M296.7,73.4l-5-1.8l5.9-16.3l5,1.8L296.7,73.4z M304.2,53.1c-0.1,0.4-0.3,0.7-0.6,1
				c-0.3,0.3-0.6,0.5-0.9,0.6c-0.3,0.2-0.7,0.2-1.1,0.3c-0.4,0-0.8,0-1.2-0.2c-0.4-0.2-0.7-0.3-1-0.6c-0.3-0.3-0.5-0.6-0.7-0.9
				s-0.3-0.7-0.3-1.1s0-0.8,0.2-1.1c0.1-0.4,0.3-0.7,0.6-1c0.3-0.3,0.6-0.5,0.9-0.6c0.3-0.2,0.7-0.2,1.1-0.3c0.4,0,0.8,0,1.1,0.2
				s0.7,0.3,1,0.6c0.3,0.3,0.5,0.6,0.7,0.9c0.2,0.3,0.3,0.7,0.3,1.1C304.3,52.4,304.3,52.7,304.2,53.1z"/>
			<path class="st4" d="M321,71.3c-0.3,0.7-0.7,1.2-1.2,1.6s-1,0.7-1.5,0.9s-1.2,0.3-1.8,0.4c-0.6,0.1-1.3,0-1.9-0.1
				c-0.6-0.1-1.3-0.2-1.9-0.4c-0.6-0.2-1.2-0.4-1.8-0.7c-0.7-0.3-1.4-0.7-2.1-1.1c-0.7-0.4-1.3-0.9-1.9-1.4c-0.2,0.7-0.3,1.3-0.3,2
				s0.1,1.3,0.2,1.9c0.2,0.6,0.5,1.1,1,1.6s1.1,0.9,1.8,1.3c0.5,0.2,1,0.4,1.6,0.5c0.5,0.1,1,0.1,1.6,0c0.5-0.1,1-0.3,1.5-0.5
				s0.9-0.5,1.3-0.9l1.8,1.7c-0.7,0.6-1.4,1-2.2,1.3s-1.6,0.4-2.4,0.4c-0.9,0-1.7-0.1-2.5-0.3c-0.9-0.2-1.7-0.5-2.3-0.8
				c-1.3-0.6-2.3-1.3-3.1-2.3c-0.9-0.9-1.5-1.9-2-2.9c-0.4-1.1-0.6-2.3-0.6-3.4s0.3-2.4,0.9-3.6c0.6-1.2,1.3-2.3,2.2-3
				c0.9-0.8,1.9-1.4,3-1.8c1.1-0.4,2.3-0.5,3.5-0.4c1.3,0.1,2.4,0.4,3.7,1c0.6,0.3,1.2,0.6,1.8,1s1.2,0.8,1.7,1.3s1,1,1.4,1.5
				c0.4,0.5,0.7,1.1,0.9,1.7c0.2,0.6,0.3,1.2,0.3,1.9C321.5,69.9,321.3,70.6,321,71.3z M307.8,68.9c0.5,0.4,1.1,0.8,1.6,1.1
				c0.6,0.4,1.1,0.7,1.7,1c0.6,0.3,1.2,0.5,1.8,0.6c0.6,0.1,1.2,0.2,1.7,0.1c0.5-0.1,1-0.3,1.5-0.7c0.4-0.3,0.8-0.9,1.1-1.5
				c0.3-0.5,0.4-1.1,0.5-1.6c0.1-0.5,0-1-0.1-1.5c-0.2-0.5-0.4-0.9-0.8-1.3c-0.4-0.4-0.8-0.7-1.4-1c-0.5-0.3-1.1-0.4-1.6-0.4
				s-1,0.1-1.5,0.2c-0.5,0.1-0.9,0.4-1.4,0.8c-0.4,0.3-0.8,0.7-1.2,1.1c-0.4,0.4-0.7,0.8-1,1.3c-0.3,0.5-0.5,0.9-0.7,1.3
				c0,0.1-0.1,0.1-0.1,0.2C307.9,68.8,307.8,68.9,307.8,68.9z"/>
			<path class="st4" d="M333.8,87.7c-0.5,0.6-1,1.1-1.5,1.5c-0.5,0.3-1.1,0.6-1.7,0.7c-0.6,0.1-1.2,0.1-1.8,0.1
				c-0.6-0.1-1.2-0.2-1.9-0.5c-0.6-0.2-1.2-0.5-1.8-0.8c-0.6-0.3-1.2-0.7-1.7-1.1c-0.7-0.5-1.4-1.1-1.8-1.6c-0.5-0.5-0.9-1-1.3-1.6
				c-0.4-0.6-0.7-1.2-1-1.9s-0.5-1.5-0.8-2.3l3.9-0.1c-0.1,0.6-0.1,1.2,0.1,1.8c0.1,0.6,0.3,1.2,0.5,1.8c0.2,0.5,0.5,1,0.8,1.4
				c0.3,0.4,0.6,0.7,0.8,0.9c0.2,0.1,0.4,0.3,0.7,0.5c0.3,0.2,0.5,0.3,0.8,0.5c0.3,0.2,0.6,0.3,0.9,0.4c0.3,0.1,0.6,0.2,0.9,0.2
				s0.6,0,0.8-0.1c0.2-0.1,0.5-0.3,0.7-0.6c0.2-0.3,0.3-0.6,0.3-0.9c0-0.3-0.1-0.6-0.2-1c-0.1-0.3-0.3-0.7-0.5-1
				c-0.2-0.3-0.5-0.7-0.7-1c-0.3-0.3-0.5-0.6-0.7-0.9c-0.2-0.3-0.5-0.5-0.6-0.7c-0.3-0.4-0.6-0.8-1-1.2c-0.4-0.4-0.7-0.9-1-1.3
				c-0.3-0.5-0.6-0.9-0.8-1.4c-0.2-0.5-0.4-1-0.5-1.5c-0.1-0.5-0.1-1,0-1.5c0.1-0.5,0.3-1,0.7-1.5c0.7-0.9,1.4-1.6,2.3-1.9
				c0.8-0.3,1.7-0.5,2.5-0.4c0.9,0.1,1.8,0.3,2.6,0.8c0.9,0.4,1.8,0.9,2.5,1.5c0.6,0.4,1.1,0.9,1.7,1.5c0.5,0.6,1,1.2,1.5,1.8
				c0.4,0.7,0.8,1.3,1.1,2c0.3,0.7,0.4,1.4,0.5,2l-3.9,0.2c0.2-0.6,0.2-1.2,0.2-1.8s-0.2-1.1-0.3-1.6c-0.2-0.5-0.4-0.9-0.7-1.3
				s-0.6-0.7-0.9-0.9c-0.3-0.2-0.7-0.5-1.1-0.7c-0.4-0.2-0.8-0.5-1.2-0.6c-0.4-0.1-0.8-0.2-1.2-0.1c-0.4,0.1-0.8,0.3-1.1,0.7
				c-0.2,0.3-0.3,0.6-0.3,0.9s0,0.6,0.2,1c0.1,0.3,0.3,0.6,0.5,1s0.5,0.6,0.7,0.9c0.2,0.3,0.5,0.6,0.7,0.9c0.2,0.3,0.5,0.5,0.6,0.8
				c0.3,0.4,0.6,0.8,1,1.2c0.4,0.4,0.7,0.9,1,1.3c0.3,0.5,0.6,0.9,0.9,1.4c0.3,0.5,0.4,1,0.5,1.5c0.1,0.5,0.1,1,0,1.5
				C334.4,86.7,334.1,87.2,333.8,87.7z"/>
		</g>
	</g>
	<path class="st5" d="M322.4,102.4c-2.7-7.3-8.9-11.6-16.5-14.3c-9.1-3.2-18.4-4-27.9-3.4c-9.4,0.6-18.6,1.9-27.7,3.9
		c-5.8,1.3-10.8,3.6-14.8,7.5c-0.4,0.4-0.8,0.7-1.2,1c-0.2-0.1-0.3-0.2-0.5-0.3c2.4-3,4.9-6,7.5-9.1c-6.5-0.9-13-0.4-19.3,0.5
		c-6.6,1-11.9,4-16.3,8.4c-0.2-0.1-0.3-0.3-0.5-0.4c2.3-2.6,4.7-5.2,7-7.8c-3.1-1.4-13.5,2.7-21.5,8.3c1.5-2,3-4,4.5-6.1
		c-0.5-0.2-1-0.4-1.5-0.4c-16-0.3-31.8,0.4-46.5,5.8c-11.2,4.2-20.2,10.9-26.3,20.5c-0.1,0.2-0.3,0.4-0.5,0.5
		c-0.1,0.1-0.2,0.1-0.4,0.1c1.2-10,7-17.1,16.1-22.1c-10.7,0.4-18.8,5-25.6,12c0.3-3.6,1.7-5.6,6.2-9.1c-2.1-0.4-3.7,0.3-5.2,0.8
		c-7.9,2.8-12.8,8.3-16,15.2c-1,2.2-1.8,4.5-2.6,6.7c-0.3,0.7-0.6,1.4-0.9,2.2c-4.6-5.3-5.5-6.1-8.5-6.6c0.5,0.6,0.9,1.1,1.2,1.5
		c1.3,1.9,2.7,3.7,3.8,5.7c0.6,1.1,1.1,1.5,2.3,1.4c13.8-0.1,27.7,0.1,41.5-0.1c0.3-0.1,0.6-0.1,1-0.1c0-0.5,0-1.1,0-1.8
		c1.5-0.2,2.4-1.3,3.5-2.1c0.2-0.2,0.3-0.7,0.3-1.1c-0.1-0.9,0.1-1.6,0.9-2.1c0.5,0.4,0.9,0.9,0.8,1.7c-0.1,1.7,0,3.5,0,5.3
		c0.5,0,0.9,0,1.4,0c0.5-0.3,0.7-0.3,1.4,0c0.1,0,0.1,0,0.2,0c0-0.2,0-0.5,0-0.7c0-1.7-0.1-3.4,0-5.1c0-0.4,0.5-0.8,0.7-1.3
		c0.7,0.5,1.2,0.9,1,1.8s0.2,1.5,1,2c0.5,0.3,1,0.8,1.5,1.1c0.4,0.2,0.8,0.3,1.3,0.5c0,0.4,0,1,0,1.5c0.1,0,0.2,0,0.3,0
		c0.2-0.6,0.5-1.2,0.6-1.9c0.1-1.7,0-3.4,0-5.2c0.7,0,1.4,0,2.1,0c0-1.6,0-3.1,0-4.7c0.3-0.1,0.5-0.1,0.7-0.2c0-0.3,0.1-0.6,0.1-0.9
		c2.3,0,4.6,0,6.9,0c0.2,0.4-0.3,1.2,0.8,1c0,0.7,0,1.4,0,2c0,0.2,0.2,0.4,0.3,0.5c0.1-0.2,0.3-0.3,0.3-0.5c0-2.6,0.1-5.1,0-7.7
		c-0.1-1.5,0.6-2.3,1.5-3.3c0.1-0.1,0.1-0.4,0.1-0.6c0-0.7,0-1.4,0-2.1c0.1,0,0.1,0,0.2,0c0,0.9,0,1.8,0,2.7c0.9,0,1.8,0,2.7,0
		c0-0.9,0-1.7,0-2.6c0.1,0,0.1,0,0.2,0c0,0.5,0,1.1,0,1.6s0.1,0.8,0.5,1.2c0.6,0.6,1,1.6,1,2.5c0.1,4.1,0,8.3,0,12.4
		c0,0.3,0,0.6,0,0.9c1.3-0.3,1.4-0.3,1.4-1.5c0-4.1,0-8.2,0-12.3c0-0.4,0-0.8-0.1-1.2c0.3,0,0.6,0,1,0c0,0.6,0,1.1,0,1.8
		c0.4,0,0.9,0,1.4,0c0-0.6-0.1-1.1-0.1-1.8c1.5,0,3,0,4.5,0c0,0.8,0,1.7,0,2.6c4.2,0,8.3,0,12.5,0c0-0.4,0-0.8,0.1-1.3
		c0.4,0,0.8,0,1.3,0c0,2.8,0,5.6,0,8.4c0.7,0.2,1.3,0.4,2,0.7c0-5,0-9.9,0-14.9c2.6,0,5.1,0,7.7,0c0,3.1,0,6.1,0,9.2
		c1.5,0,3,0,4.5,0c0,1.8,0,3.5,0,5.2c0.7,0,0.9-0.3,0.9-0.9c0-4,0-7.9,0-11.9c0-0.4-0.2-1,0.5-1.1c0.1,0,0.1-0.4,0.2-0.7
		c1.9,0,3.8,0,5.5,0c0.4,0.4,0.6,0.7,0.8,1c0.1,0,0.1,0,0.2-0.1c0,1.7,0,3.5,0,5.3c1.4,0,2.8,0,4.2,0c0,0.9,0,1.8,0,2.7
		c0.4,0,0.9,0,1.5,0c0,5.2,0,10.4,0,15.8c0.5-0.4,0.8-0.7,1.1-1c0-5.7,0-11.4,0-17.2c0.5-1.2,1.6-1.4,3-1.2c0-0.4,0-0.6,0-0.9
		c0.1-2,0.1-4,0.2-5.9c0-0.4,0.4-0.3,0.5-0.4c0.3-0.4,0.4-0.9,0.6-1.4c0.1-0.2,0.1-0.4,0.1-0.7c0.3,0.9,0.5,1.6,0.8,2.5
		c0.2-0.3,0.2-0.5,0.4-0.7c0.1,2.6,0.3,5,0.4,7.6c1.2-0.2,2.4-0.1,2.9,1.3c0,0.4-0.1,0.8-0.1,1.2c0,4.8,0,9.6,0,14.5
		c0,0.6,0.1,1.3,0.1,1.8c0.5,0.4,1,0.7,1.6,1.1c0-0.3,0.1-0.6,0.1-0.8c0.4-0.2,0.8-0.4,1.2-0.6c0-0.7-0.1-1.4,0-2.1
		c0.6-6.7,0.2-13.4,0.3-20.2c0-0.1,0-0.2,0-0.4c1.5,0,3,0,4.7,0c0,1.6,0,3.2,0,4.8c0.9,0,1.7-0.1,2.5,0c0.9,0.1,1.8,0.3,2.8,0.4
		c0,2.5,0,4.9,0,7.5c1.2,0,2.2,0,3.3,0c0.3,0,0.7-0.1,0.8,0.4c0,0.1,0.6,0.2,1,0.3c0,3,0,6.1,0,9.2c0.4,0,0.7,0,1.1,0
		c0-1,0-2.1,0-3.1c0-0.3-0.1-0.7-0.1-1c0-1.6,0.1-3.1,0.1-4.7c0-0.7,0.2-1.4,0.5-2c0.6-1.2,0.9-2.5,1.3-3.7c0.6,1.6,1.2,3.3,1.9,5.1
		c1.3-0.5,2.5-1,3.7-1.6c0.1-0.1,0.2-0.3,0.3-0.5c0-0.1,0-0.3,0.1-0.5c0,0.1-0.1,0.3-0.1,0.5c0,0.6,0.7,0.7,1.2,1
		c1,0.4,1.9,0.8,2.9,1.2c0.6-1.8,1.3-3.5,1.8-5c0.3,0.8,0.8,1.6,1.1,2.6c0.3,1.1,0.8,2.1,0.7,3.3c-0.1,1.4,0.1,2.9,0.1,4.3
		c0,1.2-0.1,2.4-0.1,3.6s0.1,1.3,1.4,1.7c0.1-2.1,0.1-4.2,0.2-6.3c0.1,0,0.2,0,0.2,0c0.6,1.2,0.2,2.5,0.4,3.7c0.5,0,0.9,0,1.4,0
		c0.1-0.2,0.2-0.3,0.3-0.5c0.2,0.1,0.5,0.2,0.7,0.2c0.4-1.1,0.4-1.1,1.2-0.9c0-0.3,0.1-0.5,0.1-0.8c0.9-0.3,1.8-0.6,2.8-0.8
		c0.5-0.1,0.9-0.3,0.7-1c-0.1-0.4,0.1-0.8,0.3-1.2c0.1,0.5,0.1,1,0.2,1.5c0.1,0.2,0.3,0.5,0.5,0.6c1,0.3,1.9,0.6,3,0.9
		c0,0.3,0.1,0.5,0.1,0.8c1.3-0.1,1.8,0.7,2.3,1.5c0.4,0,0.8,0,1.3,0c0.1-1.3,0.2-2.6,0.3-4c0.1,0,0.2,0,0.3,0c0.1,0.7,0.2,1.3,0.2,2
		c0,1.6,0,3.2,0,4.8c0,0.6,0,1.2,0.7,1.5c0.1,0,0.1,0.4,0.2,0.6c-47.2,0-94.3,0-141.5,0c-18.1,0.5-36.3,0.5-54.5,0.3
		c-18.9-0.3-37.9-1-56.8-1.4c-1.9,0-3.8,0.6-5.7,0.9c-0.1,0.4-0.3,0.9-0.4,1.3c22.9,0.8,45.9,1.6,69,2.5c-0.3,4.8-3.7,8.5-6.1,12.7
		c3.9-2,7.2-4.6,9.3-8.3c1,3.1,1.9,6.2,2.9,9.4c0.3,0,0.5-0.1,0.8-0.1c0.1-1.5,0.1-3.1,0.2-4.6c0.1-1.2,0.3-2.5,0.5-3.6
		c0.5-2.2,1.1-2.4,3.3-1.3c4.5,2.2,8.4,5.2,11.9,8.6c2.2,2.1,4.2,4.3,6.2,6.4c0.4,0.4,0.8,0.7,1.4,1c-0.6-4.2-2.7-7.9-5.3-11.8
		c1.8,0.3,3.2,0.5,4.7,0.8c14.7,3.3,29.4,4.7,44.3,4.9c16.4,0.2,32.6-1,48.6-3.2c15.1-2,30-4.8,44.7-8c17.8-3.9,35.2-8.7,51.8-15.4
		c3.8-1.5,7.5-3.4,10.8-5.6C323.9,109.9,324.3,107.3,322.4,102.4z"/>
</g>
<g>
	<rect x="9.5" y="159" class="st2" width="313.3" height="50.5"/>
	<text transform="matrix(1 0 0 1 47.4402 167.3168)"><tspan x="0" y="0" class="st6 st7 st8">It Takes a Blend of Silicon Valley Ingenuity and </tspan><tspan x="-23" y="13.2" class="st6 st7 st8">Native American Spirituality to Solve Theft and Murder </tspan><tspan x="8.6" y="26.4" class="st6 st7 st8">in Kiowa Country — Before Time Runs Out.</tspan></text>
</g>
</svg>
