<?xml version="1.0" encoding="utf-8"?>
<!-- Generator: Adobe Illustrator 24.0.3, SVG Export Plug-In . SVG Version: 6.00 Build 0)  -->
<svg version="1.1" id="Layer_1" xmlns="http://www.w3.org/2000/svg" xmlns:xlink="http://www.w3.org/1999/xlink" x="0px" y="0px"
	 viewBox="0 0 342.3 204.9" style="enable-background:new 0 0 342.3 204.9;" xml:space="preserve">
<style type="text/css">
	.st0{display:none;}
	.st1{display:inline;fill:#514324;}
	.st2{fill:none;}
	.st3{fill:#332E25;stroke:#A89F98;stroke-width:2;stroke-miterlimit:10;}
	.st4{fill:#850A0A;}
	.st5{fill:#FBC438;}
	.st6{font-family:'MyanmarMN';}
	.st7{font-size:11px;}
	.st8{fill:#FFFFFF;}
</style>
<g id="Layer_3" class="st0">
	<rect x="-17.9" y="-7.9" class="st1" width="413.7" height="222.3"/>
</g>
<g id="Layer_1_1_">
	<rect x="13.6" y="158.5" class="st2" width="316.2" height="46.2"/>
	<g>
		<path class="st3" d="M4.2,75.5l7.1,15l-3.3,2l-8.2-20.9l4.9-3L18,80.2L13.9,63l4.9-3l14.3,17.2l-5.5,3.3l-10-12.7l4.6,16.1l-4.9,3
			L4.2,75.5z"/>
		<path class="st3" d="M32.2,70.1c-0.3-0.8-0.5-1.6-0.7-2.4c-0.2-0.9-0.3-1.8-0.3-2.7c0-0.9,0-1.8,0-2.8s0.2-1.8,0.4-2.7l3.7-1.4
			c0,0.8,0.1,1.6,0.2,2.5c0.1,0.9,0.2,1.7,0.4,2.5s0.3,1.6,0.5,2.4s0.4,1.5,0.7,2.1c0.1,0.4,0.3,0.8,0.5,1.2
			c0.2,0.4,0.4,0.8,0.7,1.2c0.2,0.4,0.5,0.8,0.8,1.1c0.3,0.3,0.6,0.6,1,0.8c0.4,0.2,0.8,0.3,1.2,0.4s0.9,0,1.4-0.2s0.9-0.5,1.2-0.8
			c0.3-0.4,0.6-0.8,0.7-1.2s0.3-1,0.3-1.5s0-1.1,0-1.6s-0.1-1-0.2-1.5c-0.1-0.5-0.2-0.9-0.4-1.3l-3.1-8.4l5-1.9l6.1,16.7l-1.9,0.7
			l-3.7-3c-0.1,0.8-0.2,1.5-0.4,2.1c-0.2,0.7-0.5,1.3-0.9,1.9s-0.9,1.1-1.4,1.5c-0.6,0.4-1.2,0.8-2,1.1c-1.2,0.4-2.3,0.6-3.3,0.6
			c-1-0.1-2-0.3-2.8-0.7s-1.6-1.1-2.2-1.9C33.1,72.1,32.6,71.2,32.2,70.1z"/>
		<path class="st3" d="M74.2,64.9l-2,0.5l-3.3-3.1c-0.1,0.7-0.2,1.3-0.5,1.9c-0.3,0.6-0.6,1.2-1,1.7s-0.9,0.9-1.5,1.3
			S64.7,67.8,64,68c-1.4,0.4-2.6,0.4-3.8,0.3C59,68.1,57.9,67.7,57,67c-0.9-0.6-1.8-1.4-2.4-2.4c-0.7-1-1.2-2.1-1.5-3.4
			c-0.3-1.2-0.4-2.5-0.3-3.7c0.1-1.2,0.4-2.3,0.9-3.3s1.3-1.9,2.2-2.6s2.1-1.3,3.4-1.6c1-0.3,2-0.3,3-0.2c1,0.2,1.9,0.6,2.7,1.2
			l-2.2-8.4l5.2-1.4L74.2,64.9z M66.7,57.7c-0.1-0.4-0.2-0.8-0.4-1.3s-0.4-0.9-0.7-1.4s-0.6-0.9-0.9-1.3c-0.3-0.4-0.7-0.7-1.1-1
			c-0.4-0.3-0.8-0.5-1.3-0.6s-1-0.1-1.5,0.1c-0.6,0.2-1.1,0.4-1.4,0.7s-0.7,0.7-0.9,1.1c-0.2,0.4-0.4,0.9-0.5,1.4s-0.1,1-0.1,1.5
			s0.1,1,0.1,1.5c0.1,0.5,0.2,1,0.3,1.4s0.3,0.9,0.4,1.4c0.2,0.5,0.4,0.9,0.6,1.4c0.2,0.5,0.5,0.9,0.8,1.3s0.7,0.7,1.1,1
			c0.4,0.3,0.8,0.4,1.3,0.5s1,0.1,1.6-0.1s1.1-0.4,1.5-0.7c0.4-0.3,0.7-0.7,0.9-1.1c0.2-0.4,0.4-0.9,0.5-1.4s0.1-1,0.1-1.5
			s-0.1-1-0.1-1.5C66.9,58.6,66.8,58.1,66.7,57.7z"/>
		<path class="st3" d="M89.4,45.1l0.7,16.6l-3.9,0.6l0.6-22.5l5.7-0.9l7.8,15.9l2.9-17.5l5.7-0.9l6.5,21.4l-6.4,0.9l-4.2-15.6
			l-2,16.6l-5.7,0.9L89.4,45.1z"/>
		<path class="st3" d="M132.9,38.6l-5.2,16.2c-0.6,1.8-1.3,3.7-2.1,5.5s-1.6,3.6-2.6,5.3l-2.2-1c0.2-0.5,0.5-1,0.8-1.7
			c0.3-0.6,0.6-1.3,0.9-2s0.6-1.3,0.8-2s0.4-1.2,0.5-1.8l-9.6-16.8l5.4-0.5l6.5,11.5l3.1-12.3L132.9,38.6z"/>
		<path class="st3" d="M151.9,49.7c0,0.8,0,1.5-0.2,2.1s-0.5,1.2-0.9,1.6c-0.4,0.5-0.8,0.9-1.4,1.2c-0.5,0.3-1.1,0.6-1.7,0.8
			c-0.6,0.2-1.3,0.4-2,0.5s-1.4,0.2-2,0.2c-0.9,0-1.7,0-2.4,0c-0.7-0.1-1.4-0.2-2-0.4s-1.3-0.5-1.9-0.9s-1.4-0.8-2.2-1.3l3-2.6
			c0.3,0.5,0.7,1,1.2,1.4s1,0.7,1.5,1s1,0.5,1.5,0.6s0.9,0.2,1.2,0.2c0.2,0,0.5,0,0.8-0.1c0.3,0,0.6-0.1,0.9-0.1
			c0.3-0.1,0.6-0.1,0.9-0.3s0.6-0.2,0.8-0.4s0.4-0.4,0.5-0.6c0.1-0.2,0.2-0.5,0.2-0.9c0-0.3-0.1-0.6-0.3-0.9
			c-0.2-0.3-0.5-0.5-0.8-0.6s-0.7-0.3-1-0.4c-0.4-0.1-0.8-0.2-1.2-0.3s-0.8-0.2-1.1-0.2s-0.7-0.1-0.9-0.2c-0.5-0.1-1-0.2-1.6-0.3
			c-0.5-0.1-1.1-0.2-1.6-0.4s-1.1-0.3-1.5-0.6s-0.9-0.5-1.3-0.8c-0.4-0.3-0.7-0.7-0.9-1.2s-0.4-1-0.4-1.6c-0.1-1.1,0.1-2.1,0.6-2.9
			c0.4-0.8,1-1.4,1.8-2c0.7-0.5,1.6-0.9,2.6-1.1c1-0.2,2-0.4,3-0.5c0.7,0,1.4,0,2.2,0.1s1.5,0.3,2.3,0.5c0.7,0.2,1.4,0.5,2.1,0.9
			c0.7,0.4,1.2,0.8,1.7,1.3l-3,2.7c-0.3-0.6-0.6-1.1-1-1.5s-0.8-0.8-1.3-1s-0.9-0.4-1.4-0.6c-0.5-0.1-0.9-0.2-1.3-0.1
			c-0.4,0-0.8,0.1-1.3,0.1c-0.5,0.1-0.9,0.2-1.3,0.3s-0.8,0.4-1,0.7c-0.3,0.3-0.4,0.7-0.4,1.2c0,0.4,0.1,0.7,0.3,0.9
			c0.2,0.3,0.4,0.5,0.7,0.6c0.3,0.2,0.6,0.3,1,0.4c0.4,0.1,0.8,0.2,1.1,0.3c0.4,0.1,0.8,0.1,1.1,0.2c0.4,0.1,0.7,0.1,1,0.2
			c0.5,0.1,1,0.2,1.6,0.3s1.1,0.2,1.6,0.4s1.1,0.3,1.6,0.5s1,0.5,1.3,0.8c0.4,0.3,0.7,0.7,1,1.2S151.9,49,151.9,49.7z"/>
		<path class="st3" d="M162.4,55.1l-5.4,0.1l-0.3-15.7l-3.3,0.1v-2.1l3.3-0.1l-0.1-6.5l5.4-0.1l0.1,6.5l5.6-0.1v2.1l-5.6,0.1
			L162.4,55.1z"/>
		<path class="st3" d="M187.3,43.3c0,0.7-0.1,1.4-0.4,1.9c-0.3,0.6-0.6,1.1-1,1.5s-0.9,0.8-1.5,1.1s-1.1,0.5-1.8,0.7
			c-0.6,0.2-1.3,0.3-1.9,0.4c-0.7,0.1-1.3,0.1-1.9,0.1c-0.8,0-1.6-0.1-2.4-0.2c-0.8-0.1-1.5-0.3-2.3-0.5c0.1,0.7,0.3,1.3,0.5,1.9
			c0.2,0.6,0.6,1.2,1,1.6c0.4,0.5,0.9,0.8,1.6,1.1c0.6,0.3,1.3,0.4,2.2,0.4c0.6,0,1.1-0.1,1.6-0.2s1-0.4,1.4-0.7s0.8-0.6,1.1-1
			s0.6-0.9,0.8-1.4l2.3,0.9c-0.4,0.8-0.8,1.5-1.5,2.1c-0.6,0.6-1.3,1.1-2.1,1.4c-0.8,0.4-1.6,0.6-2.5,0.8s-1.7,0.3-2.6,0.2
			c-1.4,0-2.7-0.3-3.9-0.7c-1.2-0.5-2.2-1.1-3-2s-1.5-1.8-2-3c-0.5-1.1-0.7-2.4-0.7-3.7c0-1.4,0.3-2.6,0.8-3.7s1.2-2.1,2.1-2.9
			c0.9-0.8,1.9-1.4,3.1-1.9c1.2-0.4,2.5-0.7,3.9-0.6c0.7,0,1.4,0.1,2.1,0.2c0.7,0.1,1.4,0.3,2.1,0.5s1.3,0.5,1.9,0.8
			c0.6,0.3,1.1,0.7,1.5,1.2s0.8,1,1,1.6C187.1,41.8,187.3,42.5,187.3,43.3z M174,46.7c0.7,0.2,1.3,0.3,2,0.4c0.7,0.1,1.3,0.1,2,0.1
			s1.3,0,1.9-0.2c0.6-0.1,1.1-0.3,1.6-0.6c0.4-0.3,0.8-0.7,1.1-1.2s0.4-1.1,0.4-1.9c0-0.6-0.1-1.2-0.2-1.7s-0.4-0.9-0.7-1.3
			c-0.3-0.4-0.7-0.6-1.2-0.9c-0.5-0.2-1.1-0.3-1.7-0.3c-0.6,0-1.1,0.1-1.6,0.3s-0.9,0.5-1.3,0.9c-0.4,0.4-0.7,0.8-1,1.3
			s-0.5,1-0.7,1.5s-0.3,1-0.4,1.6c-0.1,0.5-0.1,1-0.1,1.5c0,0.1,0,0.2,0,0.2C174,46.5,174,46.6,174,46.7z"/>
		<path class="st3" d="M206.7,40l-3.3,4.7c-0.1-0.4-0.2-0.9-0.4-1.4s-0.4-1-0.7-1.5s-0.6-0.9-1-1.2s-0.9-0.5-1.4-0.5
			s-0.9,0.1-1.3,0.3c-0.4,0.2-0.7,0.5-1,0.9s-0.5,0.8-0.7,1.3s-0.3,1-0.5,1.5c-0.1,0.5-0.2,1-0.3,1.4c-0.1,0.5-0.1,0.9-0.1,1.2
			l-0.5,8.9l-5.4-0.3l0.9-17.7l2.1,0.1l2,4.2c0.3-0.7,0.7-1.2,1.1-1.8s0.9-1,1.4-1.4s1.1-0.7,1.7-0.9s1.4-0.3,2.2-0.2
			c0.4,0,0.9,0.1,1.4,0.2c0.5,0.1,1,0.2,1.5,0.4s0.9,0.4,1.3,0.7C206.2,39.3,206.5,39.6,206.7,40z"/>
		<path class="st3" d="M225.8,40.1l-8,15c-0.9,1.7-1.9,3.4-3,5.1c-1.1,1.7-2.2,3.2-3.5,4.7l-2-1.4c0.3-0.4,0.7-0.9,1.1-1.5
			s0.8-1.2,1.2-1.8s0.8-1.2,1.1-1.8c0.4-0.6,0.6-1.2,0.8-1.7l-6.4-18.2l5.4,0.5l4.4,12.4l5.2-11.6L225.8,40.1z"/>
		<path class="st3" d="M255.2,55.4c-0.1,0.9-0.4,1.8-0.8,2.4s-0.8,1.2-1.3,1.7s-1.1,0.8-1.8,1.1s-1.4,0.4-2.1,0.5
			c-0.8,0.1-1.5,0.1-2.3,0.1s-1.6-0.1-2.5-0.2c-1.1-0.2-2.1-0.4-3-0.7s-1.7-0.7-2.5-1.2s-1.5-1-2.1-1.7c-0.7-0.7-1.3-1.4-1.9-2.3
			l3.7-2.6c0.2,0.7,0.5,1.5,0.9,2.1c0.4,0.7,0.9,1.3,1.4,1.8s1.1,1,1.8,1.3c0.6,0.3,1.2,0.6,1.8,0.7c0.7,0.1,1.3,0.2,2,0.2
			s1.2-0.1,1.7-0.2c0.5-0.2,0.9-0.4,1.2-0.7s0.5-0.8,0.6-1.3c0.1-0.4,0-0.8-0.1-1.1s-0.4-0.6-0.7-0.9c-0.3-0.3-0.6-0.5-1-0.7
			s-0.8-0.4-1.2-0.6c-0.4-0.2-0.8-0.3-1.2-0.5s-0.7-0.3-1-0.4c-0.6-0.3-1.2-0.6-1.8-0.9s-1.3-0.6-1.9-1s-1.2-0.7-1.7-1.2
			c-0.5-0.4-1-0.9-1.3-1.4c-0.4-0.5-0.6-1.1-0.8-1.7c-0.2-0.6-0.2-1.3-0.1-2.1c0.1-0.9,0.4-1.7,0.7-2.4s0.8-1.2,1.3-1.7
			s1.1-0.8,1.7-1.1c0.6-0.3,1.3-0.5,2.1-0.6c0.7-0.1,1.5-0.1,2.3-0.1s1.6,0.1,2.4,0.2c1.1,0.2,2.1,0.4,3,0.8s1.7,0.8,2.4,1.3
			s1.4,1.1,1.9,1.7c0.6,0.6,1.1,1.3,1.6,2l-3.7,2.6c-0.1-0.8-0.4-1.5-0.7-2.1c-0.4-0.7-0.8-1.2-1.2-1.7c-0.5-0.5-1-0.9-1.6-1.2
			s-1.1-0.5-1.7-0.6c-0.7-0.1-1.4-0.2-2-0.2s-1.2,0.1-1.6,0.2c-0.5,0.1-0.9,0.4-1.2,0.7s-0.5,0.8-0.6,1.3c-0.1,0.4,0,0.8,0.1,1.2
			c0.1,0.3,0.3,0.6,0.6,0.9s0.6,0.5,0.9,0.7c0.4,0.2,0.7,0.4,1.1,0.5c0.4,0.2,0.8,0.3,1.2,0.5c0.4,0.1,0.7,0.3,1,0.4
			c0.6,0.3,1.2,0.6,1.9,0.9c0.7,0.3,1.3,0.6,1.9,1c0.6,0.4,1.2,0.8,1.8,1.2s1,0.9,1.4,1.4s0.7,1.1,0.8,1.8
			C255.3,53.9,255.3,54.6,255.2,55.4z"/>
		<path class="st3" d="M276.9,54.8c-0.2,0.7-0.4,1.3-0.8,1.8s-0.8,0.9-1.3,1.3s-1.1,0.6-1.7,0.8s-1.2,0.3-1.9,0.3
			c-0.7,0.1-1.3,0-2,0c-0.7-0.1-1.3-0.2-1.9-0.3c-0.8-0.2-1.5-0.4-2.3-0.7c-0.7-0.3-1.4-0.6-2.1-1c0,0.7,0,1.4,0.1,2
			s0.3,1.2,0.7,1.8c0.3,0.5,0.7,1,1.3,1.4c0.5,0.4,1.2,0.7,2.1,0.9c0.5,0.1,1.1,0.2,1.6,0.1c0.5-0.1,1-0.2,1.5-0.4s0.9-0.5,1.3-0.8
			s0.8-0.7,1.1-1.2l2.1,1.3c-0.5,0.7-1.1,1.3-1.9,1.7s-1.5,0.8-2.3,1s-1.7,0.3-2.6,0.3s-1.7-0.1-2.6-0.3c-1.4-0.3-2.6-0.8-3.6-1.5
			s-1.9-1.5-2.6-2.5s-1.1-2.1-1.3-3.3c-0.2-1.2-0.2-2.5,0.1-3.8c0.3-1.3,0.8-2.5,1.5-3.5s1.6-1.8,2.6-2.4c1-0.6,2.1-1,3.4-1.2
			s2.6-0.1,3.9,0.2c0.7,0.1,1.3,0.3,2,0.6c0.7,0.2,1.3,0.5,1.9,0.9c0.6,0.3,1.2,0.7,1.7,1.2c0.5,0.4,0.9,0.9,1.3,1.5
			c0.3,0.6,0.6,1.2,0.7,1.8C277.1,53.4,277.1,54.1,276.9,54.8z M263.3,55.4c0.6,0.3,1.2,0.5,1.9,0.8c0.6,0.2,1.3,0.4,1.9,0.5
			c0.7,0.2,1.3,0.2,1.9,0.2s1.2-0.1,1.7-0.3s0.9-0.5,1.3-1c0.4-0.4,0.6-1,0.8-1.8c0.1-0.6,0.2-1.1,0.1-1.7s-0.2-1-0.5-1.4
			c-0.2-0.4-0.6-0.8-1-1.1s-1-0.5-1.6-0.7c-0.6-0.1-1.1-0.1-1.7,0c-0.5,0.1-1,0.3-1.4,0.6s-0.8,0.6-1.2,1c-0.4,0.4-0.7,0.9-1,1.3
			c-0.3,0.5-0.5,1-0.7,1.5s-0.3,1-0.4,1.4c0,0.1,0,0.2-0.1,0.2C263.3,55.3,263.3,55.3,263.3,55.4z"/>
		<path class="st3" d="M296.8,56.1l-4.3,3.8c0-0.4,0-0.9-0.1-1.5c0-0.5-0.2-1.1-0.3-1.6c-0.2-0.5-0.4-1-0.7-1.4
			c-0.3-0.4-0.7-0.7-1.2-0.8s-0.9-0.1-1.3,0s-0.8,0.4-1.2,0.7c-0.4,0.3-0.7,0.7-1,1.1c-0.3,0.4-0.6,0.9-0.8,1.3s-0.4,0.9-0.6,1.4
			s-0.3,0.8-0.4,1.1l-2.5,8.5l-5.2-1.5l5-17l2,0.6l0.9,4.6c0.5-0.6,1-1,1.5-1.5c0.5-0.4,1.1-0.8,1.7-1s1.2-0.4,1.9-0.4
			c0.7,0,1.4,0.1,2.1,0.3c0.4,0.1,0.8,0.3,1.3,0.5s0.9,0.5,1.3,0.7c0.4,0.3,0.8,0.6,1.1,1C296.5,55.3,296.7,55.7,296.8,56.1z"/>
		<path class="st3" d="M299.1,74.3l-5.1-1.8l6-16.7l5.1,1.8L299.1,74.3z M306.8,53.6c-0.1,0.4-0.3,0.7-0.6,1
			c-0.3,0.3-0.6,0.5-0.9,0.6c-0.3,0.2-0.7,0.2-1.1,0.3c-0.4,0-0.8,0-1.2-0.2s-0.7-0.3-1-0.6s-0.5-0.6-0.7-0.9
			c-0.2-0.3-0.3-0.7-0.3-1.1c0-0.4,0-0.8,0.2-1.1c0.1-0.4,0.3-0.7,0.6-1c0.3-0.3,0.6-0.5,0.9-0.6c0.3-0.2,0.7-0.2,1.1-0.3
			c0.4,0,0.8,0,1.1,0.2s0.7,0.3,1,0.6s0.5,0.6,0.7,0.9c0.2,0.3,0.3,0.7,0.3,1.1S306.9,53.2,306.8,53.6z"/>
		<path class="st3" d="M324,72.2c-0.3,0.7-0.7,1.2-1.2,1.6s-1,0.7-1.5,0.9s-1.2,0.3-1.8,0.4s-1.3,0-1.9-0.1s-1.3-0.2-1.9-0.4
			s-1.2-0.4-1.8-0.7c-0.7-0.3-1.4-0.7-2.1-1.1s-1.3-0.9-1.9-1.4c-0.2,0.7-0.3,1.3-0.3,2s0.1,1.3,0.2,1.9c0.2,0.6,0.5,1.1,1,1.6
			s1.1,0.9,1.8,1.3c0.5,0.2,1,0.4,1.6,0.5c0.5,0.1,1,0.1,1.6,0c0.5-0.1,1-0.3,1.5-0.5s0.9-0.5,1.3-0.9l1.8,1.7
			c-0.7,0.6-1.4,1-2.2,1.3s-1.6,0.4-2.5,0.4s-1.7-0.1-2.6-0.3c-0.9-0.2-1.7-0.5-2.4-0.8c-1.3-0.6-2.3-1.3-3.2-2.3
			c-0.9-0.9-1.5-1.9-2-3c-0.4-1.1-0.6-2.3-0.6-3.5s0.3-2.5,0.9-3.7s1.3-2.3,2.2-3.1s1.9-1.4,3.1-1.8c1.1-0.4,2.3-0.5,3.6-0.4
			c1.3,0.1,2.5,0.4,3.8,1c0.6,0.3,1.2,0.6,1.8,1c0.6,0.4,1.2,0.8,1.7,1.3s1,1,1.4,1.5s0.7,1.1,0.9,1.7c0.2,0.6,0.3,1.2,0.3,1.9
			C324.5,70.8,324.3,71.5,324,72.2z M310.5,69.7c0.5,0.4,1.1,0.8,1.6,1.1c0.6,0.4,1.1,0.7,1.7,1s1.2,0.5,1.8,0.6s1.2,0.2,1.7,0.1
			s1-0.3,1.5-0.7c0.4-0.3,0.8-0.9,1.1-1.5c0.3-0.5,0.4-1.1,0.5-1.6s0-1-0.1-1.5c-0.2-0.5-0.4-0.9-0.8-1.3s-0.8-0.7-1.4-1
			c-0.5-0.3-1.1-0.4-1.6-0.4s-1,0.1-1.5,0.2s-0.9,0.4-1.4,0.8c-0.4,0.3-0.8,0.7-1.2,1.1s-0.7,0.8-1,1.3s-0.5,0.9-0.7,1.3
			c0,0.1-0.1,0.1-0.1,0.2C310.6,69.6,310.5,69.7,310.5,69.7z"/>
		<path class="st3" d="M337,88.9c-0.5,0.6-1,1.1-1.5,1.5c-0.5,0.3-1.1,0.6-1.7,0.7s-1.2,0.1-1.8,0.1c-0.6-0.1-1.2-0.2-1.9-0.5
			c-0.6-0.2-1.2-0.5-1.8-0.8c-0.6-0.3-1.2-0.7-1.7-1.1c-0.7-0.5-1.4-1.1-1.8-1.6c-0.5-0.5-0.9-1-1.3-1.6s-0.7-1.2-1-1.9
			s-0.5-1.5-0.8-2.4l4-0.1c-0.1,0.6-0.1,1.2,0.1,1.8c0.1,0.6,0.3,1.2,0.5,1.8c0.2,0.5,0.5,1,0.8,1.4s0.6,0.7,0.8,0.9
			c0.2,0.1,0.4,0.3,0.7,0.5c0.3,0.2,0.5,0.3,0.8,0.5s0.6,0.3,0.9,0.4s0.6,0.2,0.9,0.2s0.6,0,0.8-0.1s0.5-0.3,0.7-0.6
			c0.2-0.3,0.3-0.6,0.3-0.9s-0.1-0.6-0.2-1c-0.1-0.3-0.3-0.7-0.5-1s-0.5-0.7-0.7-1c-0.3-0.3-0.5-0.6-0.7-0.9s-0.5-0.5-0.6-0.7
			c-0.3-0.4-0.6-0.8-1-1.2s-0.7-0.9-1-1.3c-0.3-0.5-0.6-0.9-0.8-1.4c-0.2-0.5-0.4-1-0.5-1.5s-0.1-1,0-1.5s0.3-1,0.7-1.5
			c0.7-0.9,1.4-1.6,2.3-1.9c0.8-0.3,1.7-0.5,2.6-0.4s1.8,0.3,2.7,0.8c0.9,0.4,1.8,0.9,2.6,1.5c0.6,0.4,1.1,0.9,1.7,1.5
			c0.5,0.6,1,1.2,1.5,1.8c0.4,0.7,0.8,1.3,1.1,2c0.3,0.7,0.4,1.4,0.5,2l-4,0.2c0.2-0.6,0.2-1.2,0.2-1.8c0-0.6-0.2-1.1-0.3-1.6
			c-0.2-0.5-0.4-0.9-0.7-1.3s-0.6-0.7-0.9-0.9c-0.3-0.2-0.7-0.5-1.1-0.7s-0.8-0.5-1.2-0.6c-0.4-0.1-0.8-0.2-1.2-0.1
			s-0.8,0.3-1.1,0.7c-0.2,0.3-0.3,0.6-0.3,0.9s0,0.6,0.2,1c0.1,0.3,0.3,0.6,0.5,1s0.5,0.6,0.7,0.9s0.5,0.6,0.7,0.9s0.5,0.5,0.6,0.8
			c0.3,0.4,0.6,0.8,1,1.2s0.7,0.9,1,1.3c0.3,0.5,0.6,0.9,0.9,1.4s0.4,1,0.5,1.5s0.1,1,0,1.5C337.7,87.9,337.4,88.4,337,88.9z"/>
	</g>
	<g>
		<path class="st4" d="M4.2,75.5l7.1,15l-3.3,2l-8.2-20.9l4.9-3L18,80.2L13.9,63l4.9-3l14.3,17.2l-5.5,3.3l-10-12.7l4.6,16.1l-4.9,3
			L4.2,75.5z"/>
		<path class="st4" d="M32.2,70.1c-0.3-0.8-0.5-1.6-0.7-2.4c-0.2-0.9-0.3-1.8-0.3-2.7c0-0.9,0-1.8,0-2.8s0.2-1.8,0.4-2.7l3.7-1.4
			c0,0.8,0.1,1.6,0.2,2.5c0.1,0.9,0.2,1.7,0.4,2.5s0.3,1.6,0.5,2.4s0.4,1.5,0.7,2.1c0.1,0.4,0.3,0.8,0.5,1.2
			c0.2,0.4,0.4,0.8,0.7,1.2c0.2,0.4,0.5,0.8,0.8,1.1c0.3,0.3,0.6,0.6,1,0.8c0.4,0.2,0.8,0.3,1.2,0.4s0.9,0,1.4-0.2s0.9-0.5,1.2-0.8
			c0.3-0.4,0.6-0.8,0.7-1.2s0.3-1,0.3-1.5s0-1.1,0-1.6s-0.1-1-0.2-1.5c-0.1-0.5-0.2-0.9-0.4-1.3l-3.1-8.4l5-1.9l6.1,16.7l-1.9,0.7
			l-3.7-3c-0.1,0.8-0.2,1.5-0.4,2.1c-0.2,0.7-0.5,1.3-0.9,1.9s-0.9,1.1-1.4,1.5c-0.6,0.4-1.2,0.8-2,1.1c-1.2,0.4-2.3,0.6-3.3,0.6
			c-1-0.1-2-0.3-2.8-0.7s-1.6-1.1-2.2-1.9C33.1,72.1,32.6,71.2,32.2,70.1z"/>
		<path class="st4" d="M74.2,64.9l-2,0.5l-3.3-3.1c-0.1,0.7-0.2,1.3-0.5,1.9c-0.3,0.6-0.6,1.2-1,1.7s-0.9,0.9-1.5,1.3
			S64.7,67.8,64,68c-1.4,0.4-2.6,0.4-3.8,0.3C59,68.1,57.9,67.7,57,67c-0.9-0.6-1.8-1.4-2.4-2.4c-0.7-1-1.2-2.1-1.5-3.4
			c-0.3-1.2-0.4-2.5-0.3-3.7c0.1-1.2,0.4-2.3,0.9-3.3s1.3-1.9,2.2-2.6s2.1-1.3,3.4-1.6c1-0.3,2-0.3,3-0.2c1,0.2,1.9,0.6,2.7,1.2
			l-2.2-8.4l5.2-1.4L74.2,64.9z M66.7,57.7c-0.1-0.4-0.2-0.8-0.4-1.3s-0.4-0.9-0.7-1.4s-0.6-0.9-0.9-1.3c-0.3-0.4-0.7-0.7-1.1-1
			c-0.4-0.3-0.8-0.5-1.3-0.6s-1-0.1-1.5,0.1c-0.6,0.2-1.1,0.4-1.4,0.7s-0.7,0.7-0.9,1.1c-0.2,0.4-0.4,0.9-0.5,1.4s-0.1,1-0.1,1.5
			s0.1,1,0.1,1.5c0.1,0.5,0.2,1,0.3,1.4s0.3,0.9,0.4,1.4c0.2,0.5,0.4,0.9,0.6,1.4c0.2,0.5,0.5,0.9,0.8,1.3s0.7,0.7,1.1,1
			c0.4,0.3,0.8,0.4,1.3,0.5s1,0.1,1.6-0.1s1.1-0.4,1.5-0.7c0.4-0.3,0.7-0.7,0.9-1.1c0.2-0.4,0.4-0.9,0.5-1.4s0.1-1,0.1-1.5
			s-0.1-1-0.1-1.5C66.9,58.6,66.8,58.1,66.7,57.7z"/>
		<path class="st4" d="M89.4,45.1l0.7,16.6l-3.9,0.6l0.6-22.5l5.7-0.9l7.8,15.9l2.9-17.5l5.7-0.9l6.5,21.4l-6.4,0.9l-4.2-15.6
			l-2,16.6l-5.7,0.9L89.4,45.1z"/>
		<path class="st4" d="M132.9,38.6l-5.2,16.2c-0.6,1.8-1.3,3.7-2.1,5.5s-1.6,3.6-2.6,5.3l-2.2-1c0.2-0.5,0.5-1,0.8-1.7
			c0.3-0.6,0.6-1.3,0.9-2s0.6-1.3,0.8-2s0.4-1.2,0.5-1.8l-9.6-16.8l5.4-0.5l6.5,11.5l3.1-12.3L132.9,38.6z"/>
		<path class="st4" d="M151.9,49.7c0,0.8,0,1.5-0.2,2.1s-0.5,1.2-0.9,1.6c-0.4,0.5-0.8,0.9-1.4,1.2c-0.5,0.3-1.1,0.6-1.7,0.8
			c-0.6,0.2-1.3,0.4-2,0.5s-1.4,0.2-2,0.2c-0.9,0-1.7,0-2.4,0c-0.7-0.1-1.4-0.2-2-0.4s-1.3-0.5-1.9-0.9s-1.4-0.8-2.2-1.3l3-2.6
			c0.3,0.5,0.7,1,1.2,1.4s1,0.7,1.5,1s1,0.5,1.5,0.6s0.9,0.2,1.2,0.2c0.2,0,0.5,0,0.8-0.1c0.3,0,0.6-0.1,0.9-0.1
			c0.3-0.1,0.6-0.1,0.9-0.3s0.6-0.2,0.8-0.4s0.4-0.4,0.5-0.6c0.1-0.2,0.2-0.5,0.2-0.9c0-0.3-0.1-0.6-0.3-0.9
			c-0.2-0.3-0.5-0.5-0.8-0.6s-0.7-0.3-1-0.4c-0.4-0.1-0.8-0.2-1.2-0.3s-0.8-0.2-1.1-0.2s-0.7-0.1-0.9-0.2c-0.5-0.1-1-0.2-1.6-0.3
			c-0.5-0.1-1.1-0.2-1.6-0.4s-1.1-0.3-1.5-0.6s-0.9-0.5-1.3-0.8c-0.4-0.3-0.7-0.7-0.9-1.2s-0.4-1-0.4-1.6c-0.1-1.1,0.1-2.1,0.6-2.9
			c0.4-0.8,1-1.4,1.8-2c0.7-0.5,1.6-0.9,2.6-1.1c1-0.2,2-0.4,3-0.5c0.7,0,1.4,0,2.2,0.1s1.5,0.3,2.3,0.5c0.7,0.2,1.4,0.5,2.1,0.9
			c0.7,0.4,1.2,0.8,1.7,1.3l-3,2.7c-0.3-0.6-0.6-1.1-1-1.5s-0.8-0.8-1.3-1s-0.9-0.4-1.4-0.6c-0.5-0.1-0.9-0.2-1.3-0.1
			c-0.4,0-0.8,0.1-1.3,0.1c-0.5,0.1-0.9,0.2-1.3,0.3s-0.8,0.4-1,0.7c-0.3,0.3-0.4,0.7-0.4,1.2c0,0.4,0.1,0.7,0.3,0.9
			c0.2,0.3,0.4,0.5,0.7,0.6c0.3,0.2,0.6,0.3,1,0.4c0.4,0.1,0.8,0.2,1.1,0.3c0.4,0.1,0.8,0.1,1.1,0.2c0.4,0.1,0.7,0.1,1,0.2
			c0.5,0.1,1,0.2,1.6,0.3s1.1,0.2,1.6,0.4s1.1,0.3,1.6,0.5s1,0.5,1.3,0.8c0.4,0.3,0.7,0.7,1,1.2S151.9,49,151.9,49.7z"/>
		<path class="st4" d="M162.4,55.1l-5.4,0.1l-0.3-15.7l-3.3,0.1v-2.1l3.3-0.1l-0.1-6.5l5.4-0.1l0.1,6.5l5.6-0.1v2.1l-5.6,0.1
			L162.4,55.1z"/>
		<path class="st4" d="M187.3,43.3c0,0.7-0.1,1.4-0.4,1.9c-0.3,0.6-0.6,1.1-1,1.5s-0.9,0.8-1.5,1.1s-1.1,0.5-1.8,0.7
			c-0.6,0.2-1.3,0.3-1.9,0.4c-0.7,0.1-1.3,0.1-1.9,0.1c-0.8,0-1.6-0.1-2.4-0.2c-0.8-0.1-1.5-0.3-2.3-0.5c0.1,0.7,0.3,1.3,0.5,1.9
			c0.2,0.6,0.6,1.2,1,1.6c0.4,0.5,0.9,0.8,1.6,1.1c0.6,0.3,1.3,0.4,2.2,0.4c0.6,0,1.1-0.1,1.6-0.2s1-0.4,1.4-0.7s0.8-0.6,1.1-1
			s0.6-0.9,0.8-1.4l2.3,0.9c-0.4,0.8-0.8,1.5-1.5,2.1c-0.6,0.6-1.3,1.1-2.1,1.4c-0.8,0.4-1.6,0.6-2.5,0.8s-1.7,0.3-2.6,0.2
			c-1.4,0-2.7-0.3-3.9-0.7c-1.2-0.5-2.2-1.1-3-2s-1.5-1.8-2-3c-0.5-1.1-0.7-2.4-0.7-3.7c0-1.4,0.3-2.6,0.8-3.7s1.2-2.1,2.1-2.9
			c0.9-0.8,1.9-1.4,3.1-1.9c1.2-0.4,2.5-0.7,3.9-0.6c0.7,0,1.4,0.1,2.1,0.2c0.7,0.1,1.4,0.3,2.1,0.5s1.3,0.5,1.9,0.8
			c0.6,0.3,1.1,0.7,1.5,1.2s0.8,1,1,1.6C187.1,41.8,187.3,42.5,187.3,43.3z M174,46.7c0.7,0.2,1.3,0.3,2,0.4c0.7,0.1,1.3,0.1,2,0.1
			s1.3,0,1.9-0.2c0.6-0.1,1.1-0.3,1.6-0.6c0.4-0.3,0.8-0.7,1.1-1.2s0.4-1.1,0.4-1.9c0-0.6-0.1-1.2-0.2-1.7s-0.4-0.9-0.7-1.3
			c-0.3-0.4-0.7-0.6-1.2-0.9c-0.5-0.2-1.1-0.3-1.7-0.3c-0.6,0-1.1,0.1-1.6,0.3s-0.9,0.5-1.3,0.9c-0.4,0.4-0.7,0.8-1,1.3
			s-0.5,1-0.7,1.5s-0.3,1-0.4,1.6c-0.1,0.5-0.1,1-0.1,1.5c0,0.1,0,0.2,0,0.2C174,46.5,174,46.6,174,46.7z"/>
		<path class="st4" d="M206.7,40l-3.3,4.7c-0.1-0.4-0.2-0.9-0.4-1.4s-0.4-1-0.7-1.5s-0.6-0.9-1-1.2s-0.9-0.5-1.4-0.5
			s-0.9,0.1-1.3,0.3c-0.4,0.2-0.7,0.5-1,0.9s-0.5,0.8-0.7,1.3s-0.3,1-0.5,1.5c-0.1,0.5-0.2,1-0.3,1.4c-0.1,0.5-0.1,0.9-0.1,1.2
			l-0.5,8.9l-5.4-0.3l0.9-17.7l2.1,0.1l2,4.2c0.3-0.7,0.7-1.2,1.1-1.8s0.9-1,1.4-1.4s1.1-0.7,1.7-0.9s1.4-0.3,2.2-0.2
			c0.4,0,0.9,0.1,1.4,0.2c0.5,0.1,1,0.2,1.5,0.4s0.9,0.4,1.3,0.7C206.2,39.3,206.5,39.6,206.7,40z"/>
		<path class="st4" d="M225.8,40.1l-8,15c-0.9,1.7-1.9,3.4-3,5.1c-1.1,1.7-2.2,3.2-3.5,4.7l-2-1.4c0.3-0.4,0.7-0.9,1.1-1.5
			s0.8-1.2,1.2-1.8s0.8-1.2,1.1-1.8c0.4-0.6,0.6-1.2,0.8-1.7l-6.4-18.2l5.4,0.5l4.4,12.4l5.2-11.6L225.8,40.1z"/>
		<path class="st4" d="M255.2,55.4c-0.1,0.9-0.4,1.8-0.8,2.4s-0.8,1.2-1.3,1.7s-1.1,0.8-1.8,1.1s-1.4,0.4-2.1,0.5
			c-0.8,0.1-1.5,0.1-2.3,0.1s-1.6-0.1-2.5-0.2c-1.1-0.2-2.1-0.4-3-0.7s-1.7-0.7-2.5-1.2s-1.5-1-2.1-1.7c-0.7-0.7-1.3-1.4-1.9-2.3
			l3.7-2.6c0.2,0.7,0.5,1.5,0.9,2.1c0.4,0.7,0.9,1.3,1.4,1.8s1.1,1,1.8,1.3c0.6,0.3,1.2,0.6,1.8,0.7c0.7,0.1,1.3,0.2,2,0.2
			s1.2-0.1,1.7-0.2c0.5-0.2,0.9-0.4,1.2-0.7s0.5-0.8,0.6-1.3c0.1-0.4,0-0.8-0.1-1.1s-0.4-0.6-0.7-0.9c-0.3-0.3-0.6-0.5-1-0.7
			s-0.8-0.4-1.2-0.6c-0.4-0.2-0.8-0.3-1.2-0.5s-0.7-0.3-1-0.4c-0.6-0.3-1.2-0.6-1.8-0.9s-1.3-0.6-1.9-1s-1.2-0.7-1.7-1.2
			c-0.5-0.4-1-0.9-1.3-1.4c-0.4-0.5-0.6-1.1-0.8-1.7c-0.2-0.6-0.2-1.3-0.1-2.1c0.1-0.9,0.4-1.7,0.7-2.4s0.8-1.2,1.3-1.7
			s1.1-0.8,1.7-1.1c0.6-0.3,1.3-0.5,2.1-0.6c0.7-0.1,1.5-0.1,2.3-0.1s1.6,0.1,2.4,0.2c1.1,0.2,2.1,0.4,3,0.8s1.7,0.8,2.4,1.3
			s1.4,1.1,1.9,1.7c0.6,0.6,1.1,1.3,1.6,2l-3.7,2.6c-0.1-0.8-0.4-1.5-0.7-2.1c-0.4-0.7-0.8-1.2-1.2-1.7c-0.5-0.5-1-0.9-1.6-1.2
			s-1.1-0.5-1.7-0.6c-0.7-0.1-1.4-0.2-2-0.2s-1.2,0.1-1.6,0.2c-0.5,0.1-0.9,0.4-1.2,0.7s-0.5,0.8-0.6,1.3c-0.1,0.4,0,0.8,0.1,1.2
			c0.1,0.3,0.3,0.6,0.6,0.9s0.6,0.5,0.9,0.7c0.4,0.2,0.7,0.4,1.1,0.5c0.4,0.2,0.8,0.3,1.2,0.5c0.4,0.1,0.7,0.3,1,0.4
			c0.6,0.3,1.2,0.6,1.9,0.9c0.7,0.3,1.3,0.6,1.9,1c0.6,0.4,1.2,0.8,1.8,1.2s1,0.9,1.4,1.4s0.7,1.1,0.8,1.8
			C255.3,53.9,255.3,54.6,255.2,55.4z"/>
		<path class="st4" d="M276.9,54.8c-0.2,0.7-0.4,1.3-0.8,1.8s-0.8,0.9-1.3,1.3s-1.1,0.6-1.7,0.8s-1.2,0.3-1.9,0.3
			c-0.7,0.1-1.3,0-2,0c-0.7-0.1-1.3-0.2-1.9-0.3c-0.8-0.2-1.5-0.4-2.3-0.7c-0.7-0.3-1.4-0.6-2.1-1c0,0.7,0,1.4,0.1,2
			s0.3,1.2,0.7,1.8c0.3,0.5,0.7,1,1.3,1.4c0.5,0.4,1.2,0.7,2.1,0.9c0.5,0.1,1.1,0.2,1.6,0.1c0.5-0.1,1-0.2,1.5-0.4s0.9-0.5,1.3-0.8
			s0.8-0.7,1.1-1.2l2.1,1.3c-0.5,0.7-1.1,1.3-1.9,1.7s-1.5,0.8-2.3,1s-1.7,0.3-2.6,0.3s-1.7-0.1-2.6-0.3c-1.4-0.3-2.6-0.8-3.6-1.5
			s-1.9-1.5-2.6-2.5s-1.1-2.1-1.3-3.3c-0.2-1.2-0.2-2.5,0.1-3.8c0.3-1.3,0.8-2.5,1.5-3.5s1.6-1.8,2.6-2.4c1-0.6,2.1-1,3.4-1.2
			s2.6-0.1,3.9,0.2c0.7,0.1,1.3,0.3,2,0.6c0.7,0.2,1.3,0.5,1.9,0.9c0.6,0.3,1.2,0.7,1.7,1.2c0.5,0.4,0.9,0.9,1.3,1.5
			c0.3,0.6,0.6,1.2,0.7,1.8C277.1,53.4,277.1,54.1,276.9,54.8z M263.3,55.4c0.6,0.3,1.2,0.5,1.9,0.8c0.6,0.2,1.3,0.4,1.9,0.5
			c0.7,0.2,1.3,0.2,1.9,0.2s1.2-0.1,1.7-0.3s0.9-0.5,1.3-1c0.4-0.4,0.6-1,0.8-1.8c0.1-0.6,0.2-1.1,0.1-1.7s-0.2-1-0.5-1.4
			c-0.2-0.4-0.6-0.8-1-1.1s-1-0.5-1.6-0.7c-0.6-0.1-1.1-0.1-1.7,0c-0.5,0.1-1,0.3-1.4,0.6s-0.8,0.6-1.2,1c-0.4,0.4-0.7,0.9-1,1.3
			c-0.3,0.5-0.5,1-0.7,1.5s-0.3,1-0.4,1.4c0,0.1,0,0.2-0.1,0.2C263.3,55.3,263.3,55.3,263.3,55.4z"/>
		<path class="st4" d="M296.8,56.1l-4.3,3.8c0-0.4,0-0.9-0.1-1.5c0-0.5-0.2-1.1-0.3-1.6c-0.2-0.5-0.4-1-0.7-1.4
			c-0.3-0.4-0.7-0.7-1.2-0.8s-0.9-0.1-1.3,0s-0.8,0.4-1.2,0.7c-0.4,0.3-0.7,0.7-1,1.1c-0.3,0.4-0.6,0.9-0.8,1.3s-0.4,0.9-0.6,1.4
			s-0.3,0.8-0.4,1.1l-2.5,8.5l-5.2-1.5l5-17l2,0.6l0.9,4.6c0.5-0.6,1-1,1.5-1.5c0.5-0.4,1.1-0.8,1.7-1s1.2-0.4,1.9-0.4
			c0.7,0,1.4,0.1,2.1,0.3c0.4,0.1,0.8,0.3,1.3,0.5s0.9,0.5,1.3,0.7c0.4,0.3,0.8,0.6,1.1,1C296.5,55.3,296.7,55.7,296.8,56.1z"/>
		<path class="st4" d="M299.1,74.3l-5.1-1.8l6-16.7l5.1,1.8L299.1,74.3z M306.8,53.6c-0.1,0.4-0.3,0.7-0.6,1
			c-0.3,0.3-0.6,0.5-0.9,0.6c-0.3,0.2-0.7,0.2-1.1,0.3c-0.4,0-0.8,0-1.2-0.2s-0.7-0.3-1-0.6s-0.5-0.6-0.7-0.9
			c-0.2-0.3-0.3-0.7-0.3-1.1c0-0.4,0-0.8,0.2-1.1c0.1-0.4,0.3-0.7,0.6-1c0.3-0.3,0.6-0.5,0.9-0.6c0.3-0.2,0.7-0.2,1.1-0.3
			c0.4,0,0.8,0,1.1,0.2s0.7,0.3,1,0.6s0.5,0.6,0.7,0.9c0.2,0.3,0.3,0.7,0.3,1.1S306.9,53.2,306.8,53.6z"/>
		<path class="st4" d="M324,72.2c-0.3,0.7-0.7,1.2-1.2,1.6s-1,0.7-1.5,0.9s-1.2,0.3-1.8,0.4s-1.3,0-1.9-0.1s-1.3-0.2-1.9-0.4
			s-1.2-0.4-1.8-0.7c-0.7-0.3-1.4-0.7-2.1-1.1s-1.3-0.9-1.9-1.4c-0.2,0.7-0.3,1.3-0.3,2s0.1,1.3,0.2,1.9c0.2,0.6,0.5,1.1,1,1.6
			s1.1,0.9,1.8,1.3c0.5,0.2,1,0.4,1.6,0.5c0.5,0.1,1,0.1,1.6,0c0.5-0.1,1-0.3,1.5-0.5s0.9-0.5,1.3-0.9l1.8,1.7
			c-0.7,0.6-1.4,1-2.2,1.3s-1.6,0.4-2.5,0.4s-1.7-0.1-2.6-0.3c-0.9-0.2-1.7-0.5-2.4-0.8c-1.3-0.6-2.3-1.3-3.2-2.3
			c-0.9-0.9-1.5-1.9-2-3c-0.4-1.1-0.6-2.3-0.6-3.5s0.3-2.5,0.9-3.7s1.3-2.3,2.2-3.1s1.9-1.4,3.1-1.8c1.1-0.4,2.3-0.5,3.6-0.4
			c1.3,0.1,2.5,0.4,3.8,1c0.6,0.3,1.2,0.6,1.8,1c0.6,0.4,1.2,0.8,1.7,1.3s1,1,1.4,1.5s0.7,1.1,0.9,1.7c0.2,0.6,0.3,1.2,0.3,1.9
			C324.5,70.8,324.3,71.5,324,72.2z M310.5,69.7c0.5,0.4,1.1,0.8,1.6,1.1c0.6,0.4,1.1,0.7,1.7,1s1.2,0.5,1.8,0.6s1.2,0.2,1.7,0.1
			s1-0.3,1.5-0.7c0.4-0.3,0.8-0.9,1.1-1.5c0.3-0.5,0.4-1.1,0.5-1.6s0-1-0.1-1.5c-0.2-0.5-0.4-0.9-0.8-1.3s-0.8-0.7-1.4-1
			c-0.5-0.3-1.1-0.4-1.6-0.4s-1,0.1-1.5,0.2s-0.9,0.4-1.4,0.8c-0.4,0.3-0.8,0.7-1.2,1.1s-0.7,0.8-1,1.3s-0.5,0.9-0.7,1.3
			c0,0.1-0.1,0.1-0.1,0.2C310.6,69.6,310.5,69.7,310.5,69.7z"/>
		<path class="st4" d="M337,88.9c-0.5,0.6-1,1.1-1.5,1.5c-0.5,0.3-1.1,0.6-1.7,0.7s-1.2,0.1-1.8,0.1c-0.6-0.1-1.2-0.2-1.9-0.5
			c-0.6-0.2-1.2-0.5-1.8-0.8c-0.6-0.3-1.2-0.7-1.7-1.1c-0.7-0.5-1.4-1.1-1.8-1.6c-0.5-0.5-0.9-1-1.3-1.6s-0.7-1.2-1-1.9
			s-0.5-1.5-0.8-2.4l4-0.1c-0.1,0.6-0.1,1.2,0.1,1.8c0.1,0.6,0.3,1.2,0.5,1.8c0.2,0.5,0.5,1,0.8,1.4s0.6,0.7,0.8,0.9
			c0.2,0.1,0.4,0.3,0.7,0.5c0.3,0.2,0.5,0.3,0.8,0.5s0.6,0.3,0.9,0.4s0.6,0.2,0.9,0.2s0.6,0,0.8-0.1s0.5-0.3,0.7-0.6
			c0.2-0.3,0.3-0.6,0.3-0.9s-0.1-0.6-0.2-1c-0.1-0.3-0.3-0.7-0.5-1s-0.5-0.7-0.7-1c-0.3-0.3-0.5-0.6-0.7-0.9s-0.5-0.5-0.6-0.7
			c-0.3-0.4-0.6-0.8-1-1.2s-0.7-0.9-1-1.3c-0.3-0.5-0.6-0.9-0.8-1.4c-0.2-0.5-0.4-1-0.5-1.5s-0.1-1,0-1.5s0.3-1,0.7-1.5
			c0.7-0.9,1.4-1.6,2.3-1.9c0.8-0.3,1.7-0.5,2.6-0.4s1.8,0.3,2.7,0.8c0.9,0.4,1.8,0.9,2.6,1.5c0.6,0.4,1.1,0.9,1.7,1.5
			c0.5,0.6,1,1.2,1.5,1.8c0.4,0.7,0.8,1.3,1.1,2c0.3,0.7,0.4,1.4,0.5,2l-4,0.2c0.2-0.6,0.2-1.2,0.2-1.8c0-0.6-0.2-1.1-0.3-1.6
			c-0.2-0.5-0.4-0.9-0.7-1.3s-0.6-0.7-0.9-0.9c-0.3-0.2-0.7-0.5-1.1-0.7s-0.8-0.5-1.2-0.6c-0.4-0.1-0.8-0.2-1.2-0.1
			s-0.8,0.3-1.1,0.7c-0.2,0.3-0.3,0.6-0.3,0.9s0,0.6,0.2,1c0.1,0.3,0.3,0.6,0.5,1s0.5,0.6,0.7,0.9s0.5,0.6,0.7,0.9s0.5,0.5,0.6,0.8
			c0.3,0.4,0.6,0.8,1,1.2s0.7,0.9,1,1.3c0.3,0.5,0.6,0.9,0.9,1.4s0.4,1,0.5,1.5s0.1,1,0,1.5C337.7,87.9,337.4,88.4,337,88.9z"/>
	</g>
	<g>
		<rect x="19.1" y="159.5" class="st2" width="306.6" height="40.8"/>
		<text transform="matrix(1 0 0 1 20.3179 167.7539)"><tspan x="0" y="0" class="st5 st6 st7">Theft and Murder Collide with Native American Spirituality </tspan><tspan x="18.4" y="13.2" class="st5 st6 st7">and Silicon Valley Ingenuity in this Fast-Paced Quest </tspan><tspan x="89.7" y="26.4" class="st5 st6 st7">Through Kiowa Country</tspan></text>
	</g>
</g>
<path class="st8" d="M322.4,102.4c-2.7-7.3-8.9-11.6-16.5-14.3c-9.1-3.2-18.4-4-27.9-3.4c-9.4,0.6-18.6,1.9-27.7,3.9
	c-5.8,1.3-10.8,3.6-14.8,7.5c-0.4,0.4-0.8,0.7-1.2,1c-0.2-0.1-0.3-0.2-0.5-0.3c2.4-3,4.9-6,7.5-9.1c-6.5-0.9-13-0.4-19.3,0.5
	c-6.6,1-11.9,4-16.3,8.4c-0.2-0.1-0.3-0.3-0.5-0.4c2.3-2.6,4.7-5.2,7-7.8c-3.1-1.4-13.5,2.7-21.5,8.3c1.5-2,3-4,4.5-6.1
	c-0.5-0.2-1-0.4-1.5-0.4c-16-0.3-31.8,0.4-46.5,5.8c-11.2,4.2-20.2,10.9-26.3,20.5c-0.1,0.2-0.3,0.4-0.5,0.5
	c-0.1,0.1-0.2,0.1-0.4,0.1c1.2-10,7-17.1,16.1-22.1c-10.7,0.4-18.8,5-25.6,12c0.3-3.6,1.7-5.6,6.2-9.1c-2.1-0.4-3.7,0.3-5.2,0.8
	c-7.9,2.8-12.8,8.3-16,15.2c-1,2.2-1.8,4.5-2.6,6.7c-0.3,0.7-0.6,1.4-0.9,2.2c-4.6-5.3-5.5-6.1-8.5-6.6c0.5,0.6,0.9,1.1,1.2,1.5
	c1.3,1.9,2.7,3.7,3.8,5.7c0.6,1.1,1.1,1.5,2.3,1.4c13.8-0.1,27.7,0.1,41.5-0.1c0.3-0.1,0.6-0.1,1-0.1c0-0.5,0-1.1,0-1.8
	c1.5-0.2,2.4-1.3,3.5-2.1c0.2-0.2,0.3-0.7,0.3-1.1c-0.1-0.9,0.1-1.6,0.9-2.1c0.5,0.4,0.9,0.9,0.8,1.7c-0.1,1.7,0,3.5,0,5.3
	c0.5,0,0.9,0,1.4,0c0.5-0.3,0.7-0.3,1.4,0c0.1,0,0.1,0,0.2,0c0-0.2,0-0.5,0-0.7c0-1.7-0.1-3.4,0-5.1c0-0.4,0.5-0.8,0.7-1.3
	c0.7,0.5,1.2,0.9,1,1.8c-0.2,0.9,0.2,1.5,1,2c0.5,0.3,1,0.8,1.5,1.1c0.4,0.2,0.8,0.3,1.3,0.5c0,0.4,0,1,0,1.5c0.1,0,0.2,0,0.3,0
	c0.2-0.6,0.5-1.2,0.6-1.9c0.1-1.7,0-3.4,0-5.2c0.7,0,1.4,0,2.1,0c0-1.6,0-3.1,0-4.7c0.3-0.1,0.5-0.1,0.7-0.2c0-0.3,0.1-0.6,0.1-0.9
	c2.3,0,4.6,0,6.9,0c0.2,0.4-0.3,1.2,0.8,1c0,0.7,0,1.4,0,2c0,0.2,0.2,0.4,0.3,0.5c0.1-0.2,0.3-0.3,0.3-0.5c0-2.6,0.1-5.1,0-7.7
	c-0.1-1.5,0.6-2.3,1.5-3.3c0.1-0.1,0.1-0.4,0.1-0.6c0-0.7,0-1.4,0-2.1c0.1,0,0.1,0,0.2,0c0,0.9,0,1.8,0,2.7c0.9,0,1.8,0,2.7,0
	c0-0.9,0-1.7,0-2.6c0.1,0,0.1,0,0.2,0c0,0.5,0,1.1,0,1.6c0,0.5,0.1,0.8,0.5,1.2c0.6,0.6,1,1.6,1,2.5c0.1,4.1,0,8.3,0,12.4
	c0,0.3,0,0.6,0,0.9c1.3-0.3,1.4-0.3,1.4-1.5c0-4.1,0-8.2,0-12.3c0-0.4,0-0.8-0.1-1.2c0.3,0,0.6,0,1,0c0,0.6,0,1.1,0,1.8
	c0.4,0,0.9,0,1.4,0c0-0.6-0.1-1.1-0.1-1.8c1.5,0,3,0,4.5,0c0,0.8,0,1.7,0,2.6c4.2,0,8.3,0,12.5,0c0-0.4,0-0.8,0.1-1.3
	c0.4,0,0.8,0,1.3,0c0,2.8,0,5.6,0,8.4c0.7,0.2,1.3,0.4,2,0.7c0-5,0-9.9,0-14.9c2.6,0,5.1,0,7.7,0c0,3.1,0,6.1,0,9.2c1.5,0,3,0,4.5,0
	c0,1.8,0,3.5,0,5.2c0.7,0,0.9-0.3,0.9-0.9c0-4,0-7.9,0-11.9c0-0.4-0.2-1,0.5-1.1c0.1,0,0.1-0.4,0.2-0.7c1.9,0,3.8,0,5.5,0
	c0.4,0.4,0.6,0.7,0.8,1c0.1,0,0.1,0,0.2-0.1c0,1.7,0,3.5,0,5.3c1.4,0,2.8,0,4.2,0c0,0.9,0,1.8,0,2.7c0.4,0,0.9,0,1.5,0
	c0,5.2,0,10.4,0,15.8c0.5-0.4,0.8-0.7,1.1-1c0-5.7,0-11.4,0-17.2c0.5-1.2,1.6-1.4,3-1.2c0-0.4,0-0.6,0-0.9c0.1-2,0.1-4,0.2-5.9
	c0-0.4,0.4-0.3,0.5-0.4c0.3-0.4,0.4-0.9,0.6-1.4c0.1-0.2,0.1-0.4,0.1-0.7c0.3,0.9,0.5,1.6,0.8,2.5c0.2-0.3,0.2-0.5,0.4-0.7
	c0.1,2.6,0.3,5,0.4,7.6c1.2-0.2,2.4-0.1,2.9,1.3c0,0.4-0.1,0.8-0.1,1.2c0,4.8,0,9.6,0,14.5c0,0.6,0.1,1.3,0.1,1.8
	c0.5,0.4,1,0.7,1.6,1.1c0-0.3,0.1-0.6,0.1-0.8c0.4-0.2,0.8-0.4,1.2-0.6c0-0.7-0.1-1.4,0-2.1c0.6-6.7,0.2-13.4,0.3-20.2
	c0-0.1,0-0.2,0-0.4c1.5,0,3,0,4.7,0c0,1.6,0,3.2,0,4.8c0.9,0,1.7-0.1,2.5,0c0.9,0.1,1.8,0.3,2.8,0.4c0,2.5,0,4.9,0,7.5
	c1.2,0,2.2,0,3.3,0c0.3,0,0.7-0.1,0.8,0.4c0,0.1,0.6,0.2,1,0.3c0,3,0,6.1,0,9.2c0.4,0,0.7,0,1.1,0c0-1,0-2.1,0-3.1
	c0-0.3-0.1-0.7-0.1-1c0-1.6,0.1-3.1,0.1-4.7c0-0.7,0.2-1.4,0.5-2c0.6-1.2,0.9-2.5,1.3-3.7c0.6,1.6,1.2,3.3,1.9,5.1
	c1.3-0.5,2.5-1,3.7-1.6c0.1-0.1,0.2-0.3,0.3-0.5c0-0.1,0-0.3,0.1-0.5c0,0.1-0.1,0.3-0.1,0.5c0,0.6,0.7,0.7,1.2,1
	c1,0.4,1.9,0.8,2.9,1.2c0.6-1.8,1.3-3.5,1.8-5c0.3,0.8,0.8,1.6,1.1,2.6c0.3,1.1,0.8,2.1,0.7,3.3c-0.1,1.4,0.1,2.9,0.1,4.3
	c0,1.2-0.1,2.4-0.1,3.6c0,1.2,0.1,1.3,1.4,1.7c0.1-2.1,0.1-4.2,0.2-6.3c0.1,0,0.2,0,0.2,0c0.6,1.2,0.2,2.5,0.4,3.7
	c0.5,0,0.9,0,1.4,0c0.1-0.2,0.2-0.3,0.3-0.5c0.2,0.1,0.5,0.2,0.7,0.2c0.4-1.1,0.4-1.1,1.2-0.9c0-0.3,0.1-0.5,0.1-0.8
	c0.9-0.3,1.8-0.6,2.8-0.8c0.5-0.1,0.9-0.3,0.7-1c-0.1-0.4,0.1-0.8,0.3-1.2c0.1,0.5,0.1,1,0.2,1.5c0.1,0.2,0.3,0.5,0.5,0.6
	c1,0.3,1.9,0.6,3,0.9c0,0.3,0.1,0.5,0.1,0.8c1.3-0.1,1.8,0.7,2.3,1.5c0.4,0,0.8,0,1.3,0c0.1-1.3,0.2-2.6,0.3-4c0.1,0,0.2,0,0.3,0
	c0.1,0.7,0.2,1.3,0.2,2c0,1.6,0,3.2,0,4.8c0,0.6,0,1.2,0.7,1.5c0.1,0,0.1,0.4,0.2,0.6c-47.2,0-94.3,0-141.5,0
	c-18.1,0.5-36.3,0.5-54.5,0.3c-18.9-0.3-37.9-1-56.8-1.4c-1.9,0-3.8,0.6-5.7,0.9c-0.1,0.4-0.3,0.9-0.4,1.3c22.9,0.8,45.9,1.6,69,2.5
	c-0.3,4.8-3.7,8.5-6.1,12.7c3.9-2,7.2-4.6,9.3-8.3c1,3.1,1.9,6.2,2.9,9.4c0.3,0,0.5-0.1,0.8-0.1c0.1-1.5,0.1-3.1,0.2-4.6
	c0.1-1.2,0.3-2.5,0.5-3.6c0.5-2.2,1.1-2.4,3.3-1.3c4.5,2.2,8.4,5.2,11.9,8.6c2.2,2.1,4.2,4.3,6.2,6.4c0.4,0.4,0.8,0.7,1.4,1
	c-0.6-4.2-2.7-7.9-5.3-11.8c1.8,0.3,3.2,0.5,4.7,0.8c14.7,3.3,29.4,4.7,44.3,4.9c16.4,0.2,32.6-1,48.6-3.2c15.1-2,30-4.8,44.7-8
	c17.8-3.9,35.2-8.7,51.8-15.4c3.8-1.5,7.5-3.4,10.8-5.6C323.9,109.9,324.3,107.3,322.4,102.4z"/>
</svg>
